<?xml version="1.0" encoding="utf-8"?>
<!-- Generator: Adobe Illustrator 16.2.1, SVG Export Plug-In . SVG Version: 6.00 Build 0)  -->
<!DOCTYPE svg PUBLIC "-//W3C//DTD SVG 1.1//EN" "http://www.w3.org/Graphics/SVG/1.1/DTD/svg11.dtd">
<svg version="1.1" id="Layer_1" xmlns="http://www.w3.org/2000/svg" xmlns:xlink="http://www.w3.org/1999/xlink" x="0px" y="0px"
	 width="960px" height="560px" viewBox="0 0 960 560" style="enable-background:new 0 0 960 560;" xml:space="preserve">
<g>
	<path style="fill:#49A942;" d="M403.992,392.079v-16.881h2.2v16.881H403.992z"/>
	<path style="fill:#49A942;" d="M417.439,392.079l-2.774-12.673h-0.12c0.096,0.98,0.167,1.961,0.191,2.941l0.191,9.731h-2.08
		v-16.881h2.391l2.486,10.808c0.12,0.55,0.239,1.124,0.359,1.674h0.144c-0.096-0.789-0.191-1.603-0.239-2.392
		c-0.167-3.347-0.144-6.719-0.191-10.09h2.104v16.881H417.439z"/>
	<path style="fill:#49A942;" d="M430.785,377.183v14.896h-2.271v-14.896h-2.558v-1.984h7.46v1.984H430.785z"/>
	<path style="fill:#49A942;" d="M439.468,392.079v-16.881h5.571v2.104h-3.323v4.949h2.965v2.104h-2.941v5.595h3.299v2.128H439.468z"
		/>
	<path style="fill:#49A942;" d="M456.003,392.079c-0.263-1.363-0.335-2.128-0.335-3.539c0-0.789,0.191-3.562-0.574-4.064
		c-0.191-0.119-0.431-0.167-0.646-0.167h-0.909v7.771h-2.224v-16.881h4.088c2.726,0,2.583,1.937,2.583,4.064
		c0,0.718,0,2.87-0.359,3.443c-0.406,0.646-0.812,0.741-1.53,0.741v0.12c1.937,0.19,1.793,1.816,1.793,3.347v1.842
		c0,1.291,0,2.08,0.431,3.323H456.003z M455.501,377.374c-0.167-0.144-0.502-0.144-0.717-0.144h-1.219v5.213h1.195
		c0.287,0,0.526-0.096,0.717-0.311c0.335-0.383,0.311-2.439,0.311-2.966C455.788,378.785,455.812,377.637,455.501,377.374z"/>
	<path style="fill:#49A942;" d="M469.239,392.079l-2.774-12.673h-0.12c0.096,0.98,0.167,1.961,0.191,2.941l0.191,9.731h-2.08
		v-16.881h2.391l2.486,10.808c0.12,0.55,0.239,1.124,0.359,1.674h0.144c-0.096-0.789-0.191-1.603-0.239-2.392
		c-0.167-3.347-0.144-6.719-0.191-10.09h2.104v16.881H469.239z"/>
	<path style="fill:#49A942;" d="M483.362,392.079l-0.431-3.108h-2.535l-0.382,3.108h-2.176l2.391-16.881h2.702l2.606,16.881H483.362
		z M481.809,381.057c-0.12-0.885-0.145-1.794-0.145-2.679h-0.191c-0.047,0.909,0,1.817-0.119,2.727l-0.717,5.81h2.008
		L481.809,381.057z"/>
	<path style="fill:#49A942;" d="M494.842,377.183v14.896h-2.271v-14.896h-2.558v-1.984h7.46v1.984H494.842z"/>
	<path style="fill:#49A942;" d="M503.479,392.079v-16.881h2.199v16.881H503.479z"/>
	<path style="fill:#49A942;" d="M515.691,392.246c-1.506,0-2.726-0.669-3.203-2.151c-0.168-0.55-0.191-1.124-0.191-1.698v-8.607
		c0-1.626,0.023-3.132,1.529-4.112c0.646-0.407,1.315-0.598,2.08-0.598c0.838,0,1.674,0.19,2.32,0.741
		c1.242,1.075,1.172,2.653,1.172,4.16v8.416C519.398,390.884,518.346,392.246,515.691,392.246z M517.174,379.598
		c0-0.98,0.168-2.582-1.243-2.582c-1.291,0-1.411,1.004-1.411,2.032v9.684c0,0.933,0.168,1.674,1.291,1.674
		c1.196,0,1.363-0.86,1.363-1.841V379.598z"/>
	<path style="fill:#49A942;" d="M530.621,392.079l-2.774-12.673h-0.12c0.096,0.98,0.168,1.961,0.191,2.941l0.191,9.731h-2.08
		v-16.881h2.392l2.486,10.808c0.12,0.55,0.239,1.124,0.358,1.674h0.145c-0.096-0.789-0.191-1.603-0.24-2.392
		c-0.167-3.347-0.143-6.719-0.191-10.09h2.105v16.881H530.621z"/>
	<path style="fill:#49A942;" d="M544.637,392.079l-0.431-3.108h-2.534l-0.383,3.108h-2.176l2.391-16.881h2.702l2.606,16.881H544.637
		z M543.082,381.057c-0.119-0.885-0.143-1.794-0.143-2.679h-0.191c-0.049,0.909,0,1.817-0.12,2.727l-0.718,5.81h2.01
		L543.082,381.057z"/>
	<path style="fill:#49A942;" d="M552.938,392.079v-16.881h2.223v14.801h3.683v2.08H552.938z"/>
</g>
<g>
	<path style="fill:#00447C;" d="M403.971,363.986v-3.341c-3.697,2.772-6.683,4.336-11.375,4.336c-5.048,0-9.313-2.062-11.232-6.896
		c-0.569-1.422-0.924-2.915-0.924-4.408c0-4.834,3.341-8.744,7.607-10.592c4.621-1.991,9.953-2.631,14.858-3.483v-1.991
		c0-2.844-1.208-4.55-4.194-4.55s-5.19,1.28-5.758,4.337h-10.948c0.071-9.1,8.46-11.517,16.066-11.517
		c6.896,0,15.569,2.133,15.569,10.663v22.536c0,1.849,0,3.341,1.066,4.905H403.971z M395.866,348.56
		c-2.133,0.711-4.692,2.062-4.692,4.621c0,2.204,1.99,3.768,4.123,3.768c1.564,0,3.057-0.64,4.266-1.563
		c3.199-2.347,3.27-5.546,3.341-9.171L395.866,348.56z"/>
	<path style="fill:#00447C;" d="M432.429,334.483c0,6.043,0,12.086,0,18.129c0,1.848,0.995,2.701,2.844,2.701
		c1.279,0,2.559,0,3.839-0.071v8.46c-1.919,0.427-3.839,0.568-5.758,0.568c-8.673,0-11.73-2.346-11.73-11.232v-18.625h-5.403v-6.683
		h5.403v-11.588h10.806v11.658h7.251v6.683H432.429z"/>
	<path style="fill:#00447C;" d="M467.939,363.986l-9.526-15.995l-4.692,4.479v11.517h-10.664v-50.19h10.734v25.807l12.015-12.726
		h13.152L466.162,340.1l14.431,23.887H467.939z"/>
	<path style="fill:#00447C;" d="M516.51,352.825c-2.914,8.531-9.881,12.299-18.625,12.299c-12.086,0-19.977-7.536-19.977-19.692
		c0-12.015,7.607-19.692,19.622-19.692c3.27,0,6.682,0.427,9.668,1.777c7.037,3.128,10.592,10.38,10.592,17.844
		C517.789,347.92,517.363,350.408,516.51,352.825z M498.098,334.413h-0.924c-1.28,0-2.986,0.568-4.053,1.208
		c-3.128,1.849-4.194,6.256-4.194,9.668c0,5.616,2.63,11.091,8.958,11.091c6.113,0,8.814-5.119,8.814-10.593
		C506.699,340.171,504.638,334.413,498.098,334.413z"/>
	<path style="fill:#00447C;" d="M538.977,336.688c-4.408,0.711-6.824,1.279-6.824,6.398v20.9h-10.877v-37.181h10.592v3.91
		c3.271-2.844,6.469-3.839,10.734-4.266v9.669L538.977,336.688z"/>
	<path style="fill:#00447C;" d="M554.056,347.636v0.497c0,4.977,3.341,8.815,8.46,8.815c4.977,0,7.251-2.488,9.384-6.611
		l8.247,4.266c-1.28,1.849-2.56,3.625-4.123,5.189c-3.769,3.696-9.1,5.545-14.361,5.545c-11.658,0-18.768-7.678-18.768-19.194
		c0-11.801,6.754-20.403,19.053-20.403c3.555,0,7.18,0.711,10.166,2.631c6.824,4.407,8.175,11.729,8.459,19.266H554.056z
		 M565.004,334.199c-0.996-0.427-2.062-0.64-3.128-0.64c-4.479,0-6.968,3.199-7.749,7.322h15.143
		C568.843,337.754,568.061,335.55,565.004,334.199z"/>
</g>
<g>
	<polygon style="fill:#49A942;" points="481.795,270.721 504.428,270.721 481.795,231.522 470.09,251.795 455.055,251.795 
		481.795,205.478 526.771,283.631 512.294,283.631 523.195,302.556 537.664,302.556 559.508,302.556 548.609,283.631 
		481.795,167.628 422.273,270.721 459.163,270.721 	"/>
	<polygon style="fill:#49A942;" points="451.222,283.631 414.602,283.631 403.675,302.556 440.295,302.556 	"/>
</g>
</svg>
