<svg xmlns="http://www.w3.org/2000/svg" viewBox="0 166 612 612"><path fill="none" d="M0 166h612v612H0V166z"/><path d="M387.4 472c26.3-21.5 43.1-55.1 43.1-91 0-67-57.4-124.5-124.5-124.5-69.4 0-124.5 55.1-124.5 124.5 0 35.9 16.8 69.4 43.1 91C148 503.1 95.4 577.3 95.4 663.5c0 14.4 12 23.9 23.9 23.9 14.4 0 23.9-12 23.9-23.9 0-88.6 71.8-160.4 162.8-160.4 88.6 0 162.8 71.8 162.8 160.4 0 14.4 12 23.9 23.9 23.9 14.4 0 23.9-12 23.9-23.9-2.4-86.2-55-160.4-129.2-191.5zm-83.8-16.8c-43.1 0-76.6-33.5-76.6-74.2s33.5-74.2 76.6-74.2 76.6 33.5 76.6 74.2-33.5 74.2-76.6 74.2z"/></svg>