<?xml version="1.0" standalone="no"?>
<!DOCTYPE svg PUBLIC "-//W3C//DTD SVG 1.1//EN" "http://www.w3.org/Graphics/SVG/1.1/DTD/svg11.dtd" >
<svg xmlns="http://www.w3.org/2000/svg">
<metadata>Generated by IcoMoon</metadata>
<defs>
<font id="Elusive-Icons" horiz-adv-x="1024">
<font-face units-per-em="1024" ascent="960" descent="-64" />
<missing-glyph horiz-adv-x="1024" />
<glyph unicode="&#x20;" d="" horiz-adv-x="512" />
<glyph unicode="&#xe600;" d="M1024 50.069l-189.285 189.285c51.891 74.299 82.554 164.519 82.554 262.011 0 253.297-205.403 458.635-458.635 458.635-253.232 0-458.635-205.337-458.635-458.635 0-253.297 205.337-458.635 458.635-458.635 97.493 0 187.778 30.663 262.077 82.554l189.285-189.285zM458.569 173.704c-180.899 0-327.596 146.632-327.596 327.596s146.698 327.596 327.596 327.596c180.964 0 327.596-146.632 327.596-327.596 0.066-180.964-146.567-327.596-327.596-327.596zM262.012 435.846h393.115v131.038h-393.115z" />
<glyph unicode="&#xe601;" d="M524.088 697.923h-131.038v-131.039h-131.038v-131.039h131.038v-131.038h131.038v131.038h131.038v131.039h-131.038zM1024 50.069l-189.285 189.285c51.891 74.299 82.554 164.518 82.554 262.012 0 253.297-205.403 458.634-458.635 458.634-253.232 0-458.635-205.338-458.635-458.634 0-253.297 205.337-458.635 458.635-458.635 97.493 0 187.778 30.663 262.077 82.554l189.285-189.285zM458.569 173.704c-180.899 0-327.596 146.633-327.596 327.596 0 180.964 146.698 327.596 327.596 327.596 180.964 0 327.596-146.633 327.596-327.596 0.066-180.964-146.566-327.596-327.596-327.596z" />
<glyph unicode="&#xe602;" d="M1024 59.36h-1024v777.28h1024zM364.623 220.93l358.072 224.887-358.072 224.887z" />
<glyph unicode="&#xe603;" d="M512 960c-282.77 0-512-229.23-512-512s229.23-512 512-512c282.77 0 512 229.23 512 512 0 282.77-229.23 512-512 512zM651.438 755.312c19.397 0.055 38.842-3.229 57.312-9.875l-101.938-101.938 28.125-72.562 72.562-28.125 101.938 101.938c21.267-59.104 8.234-127.829-39.125-175.188-47.358-47.359-116.021-60.392-175.125-39.125l-289.812-289.75-100.688 100.688 289.75 289.812c-21.267 59.104-8.234 127.766 39.125 175.125 32.559 32.559 75.203 48.88 117.875 49zM283.812 261.625c-11.556-11.556-11.556-30.256 0-41.812s30.256-11.556 41.812 0c11.556 11.556 11.556 30.256 0 41.812-12.526 11.386-31.019 10.468-41.812 0z" />
<glyph unicode="&#xe604;" d="M839.758 943.526c-98.471 35.432-212.885 13.712-291.787-65.19-78.902-78.902-100.622-193.316-65.19-291.786l-482.781-482.781 167.769-167.768 482.781 482.781c98.471-35.432 212.885-13.712 291.786 65.19 78.902 78.902 100.622 193.316 65.19 291.787l-169.773-169.773-120.924 46.844-46.844 120.924 169.773 169.773zM201.54 137.54c19.253-19.253 19.253-50.469 0-69.722-19.253-19.253-50.469-19.253-69.722 0-19.253 19.253-19.253 50.469 0 69.722 19.253 19.253 50.469 19.253 69.722 0z" />
<glyph unicode="&#xe605;" d="M511.415-64c-285.929 5.496-509.416 239.882-511.415 512.585 5.56 285.716 238.702 509.416 511.415 511.415 285.732-5.712 510.583-238.334 512.585-511.415-5.648-285.945-239.515-510.583-512.585-512.585zM511.415 923.721c-265.487-5.228-474.459-221.626-476.306-475.136 5.164-265.699 222.807-474.459 476.306-476.306 265.699 5.164 474.459 222.807 476.306 476.306-5.011 265.683-223.173 473.291-476.306 475.136zM388.535 29.623l131.072 376.832 136.923-368.64c-92.248-30.881-179.459-32.752-267.995-8.192zM287.89 695.515c-47.983-6.522-94.649-8.849-140.434-7.022 86.935 124.289 226.13 194.213 363.959 195.438 112.734-2.134 217.83-44.747 294.912-114.688-35.749 2.642-57.154-13.036-72.558-39.79-22.387-69.068 24.919-120.194 51.493-172.032 25.126-47.364 23.134-101.222 9.362-147.456l-65.536-223.524-157.988 469.285c16.462 1.532 33.031 2.025 47.982 4.681 17.696 3.94 21.578 20.407 9.362 30.427-3.901 3.121-8.192 4.681-12.873 4.681l-94.793-7.022h-71.973c-20.32-1.2-77.697 18.429-82.505-8.192-2.485-10.254 5.17-18.292 14.043-19.895 15.655-2.029 33.591-4.331 47.982-5.851l69.047-184.905-95.963-283.209-159.159 469.285c16.842 1.463 33.906 1.973 49.152 4.681 12.483 1.565 17.944 7.806 16.384 18.725-2.213 9.709-10.866 16.269-19.895 16.384zM112.348 622.958l209.481-566.418c-75.586 37.256-135.343 92.044-177.884 157.404-77.821 124.187-86.007 281.74-31.598 409.015zM930.962 332.142c-34.391-112.307-104.634-205.324-201.874-261.559 4.681 12.483 12.093 33.548 22.235 63.195l121.71 353.426c11.703 34.328 19.895 72.558 24.576 114.688 1.58 17.237 1.633 34.615-1.17 50.322 49.869-107.556 64.015-214.094 34.523-320.073z" />
<glyph unicode="&#xe606;" d="M406.8 960c-55.98-0.402-100.333-43.397-102.72-101.627 0.407-56.663 43.856-100.581 102.72-102.747 52.417 0.71 98.978 43.925 101.627 102.747-0.397 56.432-43.592 99.054-101.627 101.627zM435.2 732.693c-23.314 0-42.984-7.83-59.013-23.493-13.022-13.071-27.602-41.9-22.933-65.040h-1.093l60.107-289.6c6.199-33.172 33.5-54.561 69.947-56.827 83.726 0.23 174.513 2.131 260.080 1.093l144.267-251.36c16.233-34.259 57.8-41.474 87.973-16.4 14.477 14.365 20.331 38.805 10.373 60.107l-167.2 290.72c-12.047 24.924-35.814 38.965-65.573 40.427h-185.787l-21.84 107.093h145.333c31.419-2.323 54.053 21.653 47.547 54.64-4.78 16.117-21.482 30.959-40.987 31.707h-170.48c-8.592 43.916-7.224 70.462-40.987 100.533-14.207 10.928-30.791 16.4-49.733 16.4zM278.427 608.747c-4.488-0.061-9.099-0.623-13.707-1.733-64.379-25.051-122.297-68.097-167.2-127.867-39.569-55.797-61.691-122.961-63.387-196.72 0.659-87.418 38.196-177.125 105.467-244.8 65.202-62.1 155.703-99.583 252.987-101.627 70.957 0.391 141.887 21.346 206.56 62.827 58.087 39.456 103.606 96.075 131.12 166.667 5.1 12.386 9.478 26.247 13.12 41.547 5.333 24.052-8.167 43.591-33.867 51.36-23.376 5.18-44.281-7.718-52.453-32.8-2.186-10.928-5.469-21.48-9.84-31.68-18.559-49.073-53.105-91.549-98.907-124.587-44.531-30.283-97.864-46.773-155.733-48.080-68.821 0.49-135.11 26.723-190.693 76.48-47.761 46.305-77.638 112.565-79.227 184.693 0.305 51.417 16.864 102.157 48.080 148.080 30.613 42.502 73.468 75.326 125.68 96.72 22.001 7.216 33.854 29.995 26.213 54.64-7.38 17.716-24.766 27.143-44.213 26.88z" />
<glyph unicode="&#xe607;" d="M512 960c-282.77 0-512-229.23-512-512s229.23-512 512-512c282.77 0 512 229.23 512 512 0 282.77-229.23 512-512 512zM239.918 702.606h544.13v-509.212h-544.13zM306.999 636.077v-376.186h410.002v376.186zM351.708 588.093h319.481v-166.809h-319.481zM351.708 392.365h90.488v-90.488h-90.488zM466.188 392.365h90.521v-90.488h-90.521zM580.669 392.365h90.521v-90.488h-90.521z" />
<glyph unicode="&#xe608;" d="M596.136 173.018h-170.325v170.325h170.325zM811.607 173.018h-170.325v170.325h170.325zM380.665 173.018h-170.325v170.325h170.325zM811.607 711.696v-313.972h-601.267v313.972zM897.796 801.988h-771.591v-707.976h771.591zM0-31.166v958.332h1024v-958.332z" />
<glyph unicode="&#xe609;" d="M512 960l-512-1024h1024l-512 1024zM472.625 604.938h78.75v-135.375l-19.25-190.375h-40.25l-19.25 190.375v135.375zM472.625 204.438h78.75v-84.813h-78.75v84.813z" />
<glyph unicode="&#xe60a;" d="M916.334 422.839c2.474 9.934-0.073 20.151-9.362 23.406l-38.619 17.554c-9.544 3.985-21.692-1.398-23.406-10.533-7.455-15.959-18.023-29.022-35.109-29.257-14.824 0-26.917 7.997-36.279 23.991-9.362 15.994-14.043 36.864-14.043 62.61 0 25.746 4.681 46.811 14.043 63.195 9.362 16.384 21.455 24.576 36.279 24.576 18.7-1.359 27.574-13.168 35.109-28.087 3.994-9.8 14.86-12.102 23.406-9.362l38.619 17.554c8.943 4.707 12.928 16.362 8.192 24.576-22.625 48.371-57.734 72.558-105.326 72.558-39.79 0-71.973-15.214-96.549-45.641-24.576-30.427-36.864-70.217-36.864-119.369 0-49.152 12.288-88.746 36.864-118.784 24.576-30.038 56.759-45.056 96.549-45.056 47.592 0 83.090 25.357 106.496 76.069zM544.183 346.77c62.033 0.959 109.272 43.584 110.007 99.474-1.096 29.514-12.963 52.471-33.938 70.217 18.47 17.44 29.074 41.193 29.257 64.366-1.536 63.242-54.135 93.119-105.326 93.623-44.471 0-78.799-17.554-102.985-52.663-5.462-7.803-4.681-15.606 2.341-23.406l28.087-25.746c9.003-8.026 19.019-6.542 26.917 1.17 11.703 16.384 25.746 24.576 42.13 24.576 13.263 0 21.065-3.315 23.406-9.947 4.512-9.839 3.215-18.816 0-26.917-12.070-12.498-29.711-8.777-46.811-8.777-11.122-0.374-19.725-6.896-19.895-17.554v-42.13c0.97-12.086 9.209-20.071 19.895-17.554 12.901 0.012 45.614 1.473 50.907-9.362 2.73-6.241 4.096-11.313 4.096-15.214 0-17.944-9.752-26.917-29.257-26.917-18.725 0-34.328 8.582-46.811 25.746-7.636 9.239-19.699 9.374-26.917 2.341l-29.257-29.257c-7.022-7.022-7.802-14.433-2.341-22.235 26.521-37.31 65.134-53.505 106.496-53.833zM428.325 648.704c2.139 11.218-6.123 22.039-16.384 22.235h-51.493c-9.362 0-14.824-4.681-16.384-14.043l-24.576-125.221-25.746 125.221c-2.341 9.362-8.192 14.043-17.554 14.043h-37.449c-10.144 0-15.995-4.681-17.554-14.043l-25.746-125.221-24.576 125.221c-1.56 9.362-7.411 14.043-17.554 14.043h-50.322c-12.826-1.009-18.991-11.151-17.554-22.235l64.366-283.209c2.341-9.362 8.192-14.043 17.554-14.043h49.152c9.362 0 15.214 4.681 17.554 14.043l23.406 117.029 23.406-117.029c1.56-9.362 7.411-14.043 17.554-14.043h49.152c9.362 0 15.214 4.681 17.554 14.043zM1024 960v-784l-512-240-512 240v784z" />
<glyph unicode="&#xe60b;" d="M0 631.633h208.057l312.989 255.095v-877.456l-312.989 255.095h-208.057zM638.643 673.244c61.512-61.512 92.872-136.292 94.078-224.339 0-84.429-31.359-156.796-94.078-217.103l-63.322 65.131c43.42 43.42 65.131 94.681 65.131 153.781 0 60.306-21.71 112.773-65.131 157.399l63.322 65.131zM747.194 779.986c90.459-90.459 135.689-199.614 135.689-327.463s-45.23-237.607-135.689-329.272l-66.94 66.94c72.367 71.161 108.551 158.304 108.551 261.428s-36.184 190.869-108.551 263.237zM846.7 879.491c55.482-55.482 98.902-120.009 130.262-193.583 31.359-73.574 47.039-151.369 47.039-233.385 0-82.016-15.68-160.113-47.039-234.29-31.359-74.177-74.78-139.006-130.262-194.488l-65.131 65.131c100.108 100.108 150.163 221.022 150.163 362.742s-50.054 262.634-150.163 362.742z" />
<glyph unicode="&#xe60c;" d="M929.315 378.573q2.199-2.199 2.199-5.183t-2.199-5.183l-48.693-48.693q-2.199-2.199-5.026-2.199-2.513 0-5.341 2.199l-69.427 69.427-69.427-69.427q-2.199-2.199-5.026-2.199-2.513 0-5.341 2.199l-48.693 48.693q-1.885 1.885-1.885 5.341 0 3.142 1.885 5.026l69.427 69.427-69.113 69.427q-2.199 1.885-2.199 5.026 0 3.456 2.199 5.341l48.379 48.693q2.199 2.199 5.341 2.199 3.141 0 5.026-2.199l69.427-69.427 69.427 69.427q2.199 2.199 5.184 2.199t5.183-2.199l48.693-48.693q2.199-2.199 2.199-5.183 0-2.984-2.199-5.183l-69.427-69.427zM92.486 631.633h208.057l312.99 255.096v-877.456l-312.99 255.096h-208.057v367.265z" />
<glyph unicode="&#xe60d;" d="M145.639 631.633h208.057l312.989 255.095v-877.456l-312.989 255.095h-208.057zM784.283 673.244c61.512-61.512 92.872-136.292 94.078-224.339 0-84.429-31.359-156.796-94.078-217.103l-63.322 65.131c43.421 43.421 65.131 94.681 65.131 153.781 0 60.306-21.71 112.773-65.131 157.399z" />
<glyph unicode="&#xe60e;" d="M0 960v-1024h1024v1024h-1024zM454.562 686.188c28.994 0.3 57.353-2.914 71.188-3.313 51.285-1.477 60.342-27.415 59.688-48.75-0.959-31.246-21.063-163.422 16.187-176.313 54.281 29.025 90.679 119.176 117.187 176.313 13.408 28.901 11.289 30.337 42.188 30.375l122.75 0.188c29.559 0.037 28.407 1.073 37.875-11 22.024-28.082-69.502-144.891-99.063-177.188-54.552-59.602-22.724-82.682-13.937-90.875 40.712-37.959 80.050-77.322 104.5-113.625 19.438-28.861 11.41-55.734-13.313-56.75l-131.625-5.438c-43.679-1.795-111.596 76.504-122.438 93.563-8.767 14.071-51.020 31.707-55-4.25l-5.562-50.187c-4.041-35.875-30.529-35.038-51.438-35.938-144.784-6.23-194.091 48.893-267 130.25-53.436 75.571-104.431 151.576-146.688 242.625-12.648 27.254-19.347 47.246-21.062 68.437 21.262 16.618 95.892 9.46 146 10.563 13.706 0.302 22.954-7.55 30.188-23.187 28.229-61.023 59.016-120.951 99.75-173.938 17.74-16.34 33.423-22.348 41.25 10.875 4.545 0.418 4.18 55.435 4.437 96.937 0.177 28.496-3.171 62.671-51.437 78.438 9.762 25.594 48.098 31.801 85.375 32.188z" />
<glyph unicode="&#xe60f;" d="M812.922 688.304c-105.758 87.401-246.232-32.040-279.273-127.729 20.374-0.351 43.685 1.767 61.159-4.871 26.981-14.597 27.357-42.729 25.438-66.571-12.031-52.759-49.416-148.757-97.421-156.414-10.103-1.082-20.567 4.511-31.391 16.778-41.954 52.554-36.757 121.689-46.545 179.687-9.159 48.522-16.064 146.452-73.607 167.78-63.38 7.741-119.035-39.485-159.662-76.854-24.896-23.092-50.334-45.103-76.313-66.030v-4.33c6.181-7.432 11.19-15.009 16.778-22.19 9.483-9.543 26.785-7.208 37.345-3.789 38.395 9.982 51.891 19.767 72.524-16.778 31.095-84.060 54.637-178.8 75.23-259.247 14.393-45.885 33.376-104.489 79.56-123.4 28.533-12.124 77.755 4.169 99.586 17.319 93.421 59.019 165.714 153.455 217.573 244.634 37.86 76.826 131.99 229.673 79.019 302.004zM1024 960v-1024h-1024v1024z" />
<glyph unicode="&#xe610;" d="M947.75 960l-947.75-948.875 76.25-75.125 947.75 947.688-76.25 76.312zM0 958.5v-240.062h240v240l-240 0.062zM282.812 958.5v-240.062h240v240l-240 0.062zM0 671.188v-240h240v240h-240zM282.812 671.188v-240l240 240h-240zM704.625 417l-148-134.812h467.375v134.812h-319.375zM524.625 244.625v-134.813h499.375v134.813h-499.375zM524.625 72.25v-134.75h499.375v134.75h-499.375z" />
<glyph unicode="&#xe611;" d="M0 876.188v-729.188h211v-211l328.938 211h484.062v729.188h-1024zM224.5 693h412.5v-127.188l162.5 127.188v-340l-162.5 127.188v-127.188h-412.5v340z" />
<glyph unicode="&#xe612;" d="M512 960c-282.77 0-512-229.23-512-512s229.23-512 512-512c282.77 0 512 229.23 512 512 0 282.77-229.23 512-512 512zM206.75 679h610.438v-462h-610.438zM281.625 604.125v-312.25h460.75v312.25zM443.5 549.75l179.812-103.688-179.812-104.312z" />
<glyph unicode="&#xe613;" d="M0 835.5v-775h1024v775zM125.562 709.875h772.875v-523.75h-772.875zM397.125 618.687v-348.875l301.625 174.938z" />
<glyph unicode="&#xe614;" d="M470.275 960l138.165-295.55c1.964 74.747-60.494 251.17-138.165 295.55zM902.675 939.216c-2.001-0.179-4.138-2.453-6.448-7.012-31.357-57.297-85.464-91.319-136.037-105.549-51.418-14.431-104.899-48.862-124.518-87.895-22.922-53.225-13.092-95.469 9.203-143.424 28.116 4.26 56.254 15.121 80.069 26.544 61.091 29.743 114.011 76.352 148.432 130.903 13.842 21.938 16.552 18.002 4.633-6.699-22.442-46.506-95.974-111.676-188.31-166.963-20.579-12.322-20.882-12.747-11.644-20.784 29.551-25.712 61.94-41.273 91.338-43.76 127.503-0.587 182.232 136.014 185.806 230.943-0.948 61.597-11.367 141.194-49.081 191.754-1.147 1.439-2.242 2.048-3.443 1.941zM437.909 674.217c-203.356 0-369.108-165.752-369.108-369.108 0-203.356 165.752-369.108 369.108-369.108 203.356 0 369.046 165.752 369.046 369.108 0 50.839-10.294 99.546-28.985 143.737l-77.44-32.741c14.412-34.073 22.412-71.513 22.412-110.995 0-153.327-119.819-277.602-271.322-284.719 175.329 119.784 254.699 430 160.953 627.221 7.447-135.349 1.338-503.63-208.218-625.594-141.988 16.517-251.54 136.525-251.54 283.092 0 157.932 127.163 285.032 285.095 285.032 39.483 0 76.797-7.875 110.87-22.287l32.804 77.315c-44.191 18.691-92.835 29.048-143.674 29.048z" />
<glyph unicode="&#xe615;" d="M801.77 227.513c-134.264 48.912-177.185 90.199-177.185 178.601 0 53.052 43.992 87.434 58.989 132.902 14.997 45.468 23.672 99.299 30.883 138.458 7.211 39.159 10.077 54.305 13.998 96.027 4.793 52.071-30.066 186.499-216.456 186.499-186.335 0-221.304-134.427-216.402-186.499 3.922-41.723 6.803-56.87 13.998-96.027 7.196-39.158 15.787-92.987 30.774-138.458 14.987-45.471 59.043-79.85 59.043-132.902 0-88.402-42.921-129.689-177.185-178.601-134.754-49.021-222.23-97.362-222.23-131.513 0-34.097 0-160 0-160h1024c0 0 0 125.903 0 160s-87.53 82.437-222.23 131.513z" />
<glyph unicode="&#xe616;" d="M819.261 288.555c-0.001-64.88-23.463-117.111-70.388-156.691-46.926-39.173-93.377-62.636-177.843-70.389v-125.475h-122.344v123.027c-99.564 2.040-167.642 19.586-242.723 52.638v161.588c35.5-17.546 78.141-33.052 127.923-46.518 50.19-13.466 75.627-21.423 114.799-23.871v189.743l-21.764 15.914c-80.794 31.827-138.125 66.308-171.993 103.441-33.46 37.54-50.19 83.853-50.19 138.941 0 59.166 23.055 107.724 69.164 145.674 46.518 38.356 91.948 61.615 174.783 69.777v93.647h122.344v-91.199c93.443-4.081 158.664-22.851 234.154-56.311l-57.535-143.226c-63.656 26.115-109.699 42.029-176.619 47.742v-180.562c79.569-30.604 116.839-57.127 150.3-79.569 33.867-22.443 58.554-47.13 74.061-74.061 15.913-26.932 23.87-58.352 23.871-94.259M635.027 279.373c-0.001 17.138-6.937 31.624-20.81 43.457-13.874 11.833-15.44 24.074-43.187 36.724v-152.406c55.494 9.385 63.997 33.46 63.997 72.225M388.973 650.902c0-17.955 6.12-32.849 18.362-44.682 12.649-11.426 13.603-23.259 41.351-35.5v143.838c-52.639-7.754-59.713-28.972-59.713-63.656" />
<glyph unicode="&#xe617;" d="M512-64c-282.769 0-512 229.231-512 512s229.231 512 512 512c282.769 0 512-229.231 512-512 0-282.769-229.231-512-512-512zM512 848.696c-221.329 0-400.696-179.423-400.696-400.696s179.367-400.696 400.696-400.696c221.329 0 400.696 179.423 400.696 400.696 0 221.273-179.367 400.696-400.696 400.696zM612.174 233.739h-200.348v227.617h-125.217l225.391 212.035 225.391-212.035h-125.217v-227.617z" />
<glyph unicode="&#xe618;" d="M512 960c-282.77 0-512-229.23-512-512s229.23-512 512-512c282.77 0 512 229.23 512 512 0 282.77-229.23 512-512 512zM519.165 778.699c95.656 3.873 165.625-79.573 169.046-166.699h-99.502c-3.703 39.039-31.339 68.144-69.544 66.614-38.205-1.53-68.694-31.626-69.512-69.544v-78.492l310.469 0.001v-312.868h-496.276v312.868h85.722v78.492c8.088 96.786 73.941 165.756 169.597 169.629z" />
<glyph unicode="&#xe619;" d="M964.924 507.076v-571.076h-905.848v571.076l156.445 0.001v143.316c2.178 84.511 35.808 162.987 90.803 218.803 27.715 27.715 60.354 49.778 97.915 66.188 37.562 16.41 77.858 24.615 120.889 24.615 83.715-1.705 160.464-35.744 216.068-89.162 58.7-59.642 90.579-138.458 92.444-214.974h-181.607c-1.111 35.641-14.008 60.716-37.197 84.239-25.978 24.405-56.879 36.961-89.709 37.197-35.641-1.111-66.186-14.008-89.709-37.197-24.405-25.978-36.961-56.879-37.197-89.709v-143.316z" />
<glyph unicode="&#xe61a;" d="M512 960c-282.77 0-512-229.23-512-512s229.23-512 512-512c282.77 0 512 229.23 512 512 0 282.77-229.23 512-512 512zM512 891.591c244.998 0 443.591-198.593 443.591-443.591s-198.593-443.623-443.591-443.623c-244.998 0-443.623 198.626-443.623 443.623 0 244.998 198.626 443.591 443.623 443.591zM787.094 498.208c14.736-13.935 14.278-33.917 3.275-48.034-13.458-14.197-34.671-14.802-48.034-3.275-41.74 37.876-87.419 73.317-129.91 112.444-0.13-1.673-11.521 7.519-16.375 7.642-4.367 0-6.55-5.095-6.55-15.284 2.143-42.049-0.98-86.441 3.821-127.181 1.82-14.92 2.729-23.471 2.729-25.655l49.126-279.471c2.815-25.664-11.213-44.833-33.842-49.126-22.66-6.164-45.947 13.376-49.126 33.842 0 0-39.633 225.659-40.392 229.254-0.759 3.594-2.099 23.499-9.825 24.563-9.927-3.602-8.777-20.32-9.825-24.563-1.048-4.243-40.392-229.254-40.392-229.254-6.64-23.674-27.049-37.666-49.126-33.842-25.226 6.307-37.556 26.468-33.842 49.126l49.126 280.563c7.254 51.855 5.458 98.243 5.458 150.652 0 10.192-2.001 15.469-6.004 15.829-4.003 0.364-9.279-2.366-15.829-8.188l-129.91-111.352c-15.179-11.311-36.399-9.426-48.034 3.275-11.762 16.807-11.010 34.992 3.275 48.034l170.303 150.652c8.007 5.095 15.467 8.551 22.38 10.371 6.916 1.82 15.467 2.729 25.655 2.729h113.535c10.189 0 18.741-0.909 25.655-2.729 6.914-1.82 14.374-5.641 22.38-11.463 54.222-47.561 111.79-98.732 170.303-149.561zM587.12 756.629c0-41.239-33.431-74.671-74.671-74.671-41.239 0-74.671 33.431-74.671 74.671 0 41.239 33.431 74.671 74.671 74.671 41.239 0 74.671-33.431 74.671-74.671z" />
<glyph unicode="&#xe61b;" d="M1024 774.832c-6.849-14.46-19.598-32.726-38.243-54.796-18.646-22.070-41.668-41.477-69.066-58.221 0.761-6.088 1.332-11.796 1.712-17.124 2.955-82.022-16.691-167.123-43.951-238.020-52.837-131.816-133.799-237.905-249.436-309.94-120.588-69.168-261.026-83.879-390.421-71.349-85.902 9.866-170.567 37.917-234.595 90.756 117.106-13.999 226.394 25.839 312.794 90.185-95.976-2.429-165.71 66.999-198.635 147.264 14.842-3.889 30.369-3.42 44.522-2.283 17.422 1.636 33.959 3.271 50.23 6.85-61.199 19.744-114.747 56.042-142.698 110.734-16.396 34.655-23.798 67.655-23.973 105.026 28.677-15.099 63.171-29.812 94.751-28.54-47.694 40.403-85.93 92.039-93.039 151.26-4.488 49.379 7.869 94.455 25.686 136.419 71.345-78.408 151.394-142.935 243.728-182.653 63.144-25.858 126.11-39.685 191.215-39.955-7.515 58.15-1.672 114.389 25.686 162.105 32.197 51.3 79.171 81.065 131.853 95.893 75.381 19.329 148.903-7.974 195.211-60.504 49.938 5.394 97.776 27.548 135.848 50.23-16.177-48.99-47.679-97.7-93.61-121.008 43.735 8.099 85.464 21.045 124.433 37.672z" />
<glyph unicode="&#xe61c;" d="M1024 960v-1024h-1024v1024zM596.431 213.649c-17.4 4.85-34.558 10.363-48.169 21.108-5.412 4.33-8.118 8.299-8.118 11.907 0 87.318 0 174.636 0 261.953h165.615c0 38.247 0 76.493 0 114.74h-165.615v173.192h-95.256c-7.101-88.917-54.21-173.192-147.214-173.192v-114.74h79.019c0-94.534 0-189.068 0-283.603 0.325-44.599 20.918-82.974 56.829-103.374 33.988-17.594 69.8-22.072 105.539-22.19 35.028 0.17 72.305-0.527 105.539 1.624 29.1 1.045 56.994 7.703 81.725 20.025v122.317c-14.432-9.382-30.309-17.319-47.628-23.814-29.053-9.526-54.986-12.653-82.266-5.953z" />
<glyph unicode="&#xe61d;" d="M512 960c-282.77 0-512-229.23-512-512s229.23-512 512-512c282.77 0 512 229.23 512 512 0 282.77-229.23 512-512 512zM432.562 768.562h158.875v-49h185.25v-90.187h-529.375v90.187h185.25v49zM275.75 560.75h472.5v-433.312h-472.5v433.312z" />
<glyph unicode="&#xe61e;" d="M385.174 960v-78.287h-295.927v-144.049h845.505v144.049h-295.927v78.287h-253.651zM134.654 628.061v-692.061h754.691v692.061h-754.691z" />
<glyph unicode="&#xe61f;" d="M964 302.035v-366.035h-904v366.035l345.333 147.087c-85.057 54.607-125.014 150.371-125.754 240.281 1.121 135.189 93.872 269.426 232.421 270.597 145.521-4.772 231.628-141.011 232.421-270.597-2.889-97.213-45.744-189.544-122.386-239.158z" />
<glyph unicode="&#xe620;" d="M150.102 298.538c1.144 72.484 21.331 137.697 57.647 194.080 37.42 56.044 78.988 110.577 113.694 162.694 55.094 84.962 101.793 172.969 130.347 263.257 9.926 28.322 32.458 44.338 60.21 40.994 30.927 1.899 52.344-14.575 60.21-40.994 30.067-97.764 78.011-183.219 130.988-263.257 36.176-58.982 77.5-104.505 113.053-162.694 38.573-61.3 57.3-127.62 57.647-194.080-2.203-99.152-41.214-191.324-105.367-256.851-71.555-68.752-165.688-105.034-256.531-105.687-99.103 2.111-191.021 41.444-256.211 105.687-68.61 71.782-105.033 165.922-105.687 256.851zM308.953 218.472c2.375-52.198 43.843-90.327 90.314-90.955 52.665 2.331 89.705 44.501 90.314 90.955 0 18.362-4.697 34.375-14.092 48.040-10.326 13.437-20.506 27.346-28.824 40.673-13.177 21.519-26.061 42.918-32.667 65.654-1.708 8.54-6.619 12.17-14.732 10.889-7.686 1.708-12.811-1.922-15.373-10.889-6.906-24.355-18.976-45.825-31.706-65.654-8.954-14.941-19.687-26.569-29.144-40.673-9.821-14.092-14.519-30.105-14.092-48.040z" />
<glyph unicode="&#xe621;" d="M874.015 810.015c-92.648 92.648-220.639 149.985-362.015 149.985-282.751 0-512-229.249-512-512 0-282.751 229.249-512 512-512 282.751 0 512 229.249 512 512 0 141.376-57.337 269.367-149.985 362.015zM770.121 736.348l92.271-92.271-346.415-346.327-242.477 242.477 92.271 92.271 150.25-150.25 254.1 254.1z" />
<glyph unicode="&#xe622;" d="M512 960c-131.026 0-262.076-49.962-362.046-149.934-199.939-199.944-199.939-524.164 0-724.108 199.939-199.944 524.152-199.944 724.091 0 199.939 199.944 199.939 524.164 0 724.108-99.969 99.972-231.020 149.934-362.046 149.934zM512 826.253c96.8 0 193.629-36.887 267.488-110.747 147.717-147.72 147.717-387.267 0-534.988-147.717-147.72-387.258-147.72-534.975 0-147.717 147.72-147.717 387.267 0 534.988 73.858 73.86 170.687 110.747 267.488 110.747zM459.627 740.318v-239.182h-132.556v-130.934h263.488v370.116h-130.931z" />
<glyph unicode="&#xe623;" d="M0 934.175zM612.296 882.55c36.275 0.39 70.598-37.081 94.373-63.81 55.837-68.61 25.025-144.64 12.75-227.868h254.681c34.429-0.256 52.081-26.145 49.685-61.124l-71.31-441.862c-16.16-56.504-78.972-106.245-145.184-113.311h-471.111c-27.869 0.364-48.751 20.145-50.937 50.937v514.424c0.362 27.867 20.145 48.751 50.937 50.937h117.121l115.873 259.743c6.444 14.018 23.335 31.619 43.123 31.935zM185.933 601.058c19.601-0.25 35.229-13.802 36.873-35.685v-567.923c-0.284-19.184-16.182-34.125-36.873-35.625h-148.996c-18.905 0.258-35.157 14.586-36.937 35.625v567.923c0.27 19.813 15.34 34.183 36.937 35.685z" />
<glyph unicode="&#xe624;" d="M973.87 279.747h-254.607c5.156-41.804 12.507-81.954 21.642-120.938 4.962-74.133-44.682-127.555-96.751-162.948-13.579-8.487-28.007-10.608-43.283-6.365-14.434 5.092-25.042 15.276-31.826 30.553l-115.846 259.699h-117.119c-30.784 2.186-50.559 23.060-50.921 50.921v514.305c2.186 30.784 23.060 50.559 50.921 50.921h471.022c25.717-1.962 51.094-11.121 71.926-22.915 36.114-21.936 61.545-52.188 73.199-89.112l71.29-443.016c4.246-33.594-20.213-60.68-49.648-61.106zM185.863 269.563h-148.945c-20.687 1.499-36.634 16.466-36.918 35.645v567.773c1.643 21.88 17.32 35.394 36.918 35.645h148.945c21.591-1.503 36.648-15.835 36.918-35.645v-567.773c-1.779-21.035-18.018-35.388-36.918-35.645z" />
<glyph unicode="&#xe625;" d="M0 960v-256h256v256h-256zM400 960v-256h624v256h-624zM0 576v-256h256v256h-256zM400 576v-256h624v256h-624zM0 192v-256h256v256h-256zM400 192v-256h624v256h-624z" />
<glyph unicode="&#xe626;" d="M0 960v-448h448v448h-448zM576 960v-448h448v448h-448zM0 384v-448h448v448h-448zM576 384v-448h448v448h-448z" />
<glyph unicode="&#xe627;" d="M0 960v-256h256v256h-256zM384 960v-256h256v256h-256zM768 960v-256h256v256h-256zM0 576v-256h256v256h-256zM384 576v-256h256v256h-256zM768 576v-256h256v256h-256zM0 192v-256h256v256h-256zM384 192v-256h256v256h-256zM768 192v-256h256v256h-256z" />
<glyph unicode="&#xe628;" d="M220 960l-5-181.812h63.188c0 124.703 0.023 124.562 159.375 124.562v-501.562c0-62.518-0.032-62.414-87.5-60.875v-49.937h323.875v49.937c-87.326 0-87.5 0.152-87.5 60.875v501.562c159.436 0 159.812-0.035 159.812-124.562h62.75l-4.562 181.812h-584.438zM178.688 291.5l-178.688-177.75 178.688-177.75v118.938h666.625v-118.938l178.688 177.75-178.688 177.75v-119h-666.625v119z" />
<glyph unicode="&#xe629;" d="M846.25 960l-177.75-178.688h119v-666.625h-119l177.75-178.688 177.75 178.688h-118.938v666.625h118.938l-177.75 178.688zM5.062 782.812l-5.062-181.812h63.188c0 124.703 0.085 124.562 159.437 124.562v-501.562c0-62.518-0.032-62.414-87.5-60.875v-49.937h323.813v49.937c-87.326 0-87.5 0.152-87.5 60.875v501.562c159.436 0 159.875-0.035 159.875-124.562h62.75l-4.562 181.812h-584.438z" />
<glyph unicode="&#xe62a;" d="M0 848.031v-200h1024v200h-1024zM642.438 798.531h329.062v-101h-329.062v101zM0 547.969v-200h1024v200h-1024zM416.188 498.469h555.312v-101h-555.312v101zM0 247.969v-200h1024v200h-1024zM763.688 198.469h207.812v-101h-207.812v101z" />
<glyph unicode="&#xe62b;" d="M0 561.085v248.041c2.968 38.946 30.775 65.629 66.108 66.108h248.041c32.903-0.552 63.554-12.455 90.42-28.683l388.726-426.97c23.438-30.099 24.641-67.553 0-92.879l-287.378-286.286c-29.038-25.056-69.734-27.324-92.879 0l-366.052 407.575c-25.731 31.846-46.604 73.764-46.986 113.094zM125.387 659.428c27.452-25.31 66.852-22.968 90.42 0 25.195 27.22 23.091 67.030 0 90.42-27.255 24.811-66.947 22.842-90.42 0-24.916-29.101-23.98-65.457 0-90.42zM432.16 874.142h95.064c39.854-2.458 87.017-18.163 112.547-46.986l366.052-408.667c24.735-28.561 23.729-69.583 0-93.972l-286.286-286.286c-39.676-22.491-76.038-20.923-100.528 7.649l280.822 280.822c25.287 27.979 22.586 68.332 0 92.879l-327.572 366.52c-38.775 48.395-122.254 85.855-140.101 88.040z" />
<glyph unicode="&#xe62c;" d="M26.199 584.071v296.821c2.268 45.351 38.81 78.562 79.109 79.109h296.821c47.733-2.966 104.726-21.681 135.334-56.226l439.347-489.035c27.598-34.938 28.379-83.284 0-112.452l-343.893-343.893c-33.718-30.505-84.026-29.206-112.452 0l-438.039 490.342c-31.933 37.711-55.785 88.13-56.226 135.335zM154.995 755.364c1.872-44.126 36.68-75.972 75.84-76.493 44.254 1.977 75.971 37.249 76.493 76.493-1.95 44.273-37.401 75.327-76.493 75.84-44.146-1.844-75.328-36.832-75.84-75.84z" />
<glyph unicode="&#xe62d;" d="M917.624 762.232c112.314-150.392 137.082-348.125 67.667-513.099-86.43-191.871-273.749-311.689-472.565-313.133-195.721 2.177-369.451 113.044-456.612 279.073h223.355c96.49 0.695 179.2 60.004 180.444 149.425-0.045 48.959-18.287 93.921-57.764 118.112-34.692 19.78-71.149 23.694-107.826 30.215-22.772 4.768-57.296 9.367-57.764 35.159 2.113 41.446 46.038 44.896 74.818 45.047 51.713 0 103.425 0 155.138 0 22.225-0.583 44.165-1.851 63.816-9.888 20.301-9.435 30.612-23.647 30.808-43.948v-154.918c1.533-51.318 18.218-94.998 54.463-126.901 36.819-29.633 80.263-42.046 123.78-42.3 46.494 1.267 90.603 14.036 123.78 42.3 38.102 35.548 54.144 80.023 54.463 126.901zM512.725 960c106.174-1.373 206.465-35.152 288.27-88.996v-491.124c-2.733-36.006-28.8-61.077-61.615-61.528-35.955 2.712-62.248 28.62-62.715 61.528v147.227c-1.341 65.175-19.188 133.637-82.52 157.665-16.873 6.226-34.844 9.339-53.913 9.339h-251.962c-44.63-1.121-85.79-13.721-117.729-40.652-33.256-30.601-49.206-68.641-49.512-109.871 0.495-28.173 6.917-56.227 21.455-78.009 24.127-32.89 58.78-48.327 94.073-54.936 28.219-6.692 57.178-6.732 83.62-15.382 19.247-7.193 25.171-18.377 25.306-36.258-1.119-21.265-12.422-30.574-30.257-35.708-25.353-5.919-51.559-4.933-75.368-4.944h-223.355c-10.509 43.714-16.402 88.185-16.504 129.648 5.41 286.182 239.292 510.014 512.725 512z" />
<glyph unicode="&#xe62e;" d="M512 960c-282.77 0-512-229.23-512-512s229.23-512 512-512c282.77 0 512 229.23 512 512 0 282.77-229.23 512-512 512zM256 704h512v-512h-512v512z" />
<glyph unicode="&#xe62f;" d="M0 960h1024v-1024h-1024z" />
<glyph unicode="&#xe630;" d="M810.667 960v-1024h-170.667v469.333l-426.667-426.667v938.667l426.667-426.667v469.333z" />
<glyph unicode="&#xe631;" d="M213.333-64v1024h170.667v-469.333l426.667 426.667v-938.667l-426.667 426.667v-469.333z" />
<glyph unicode="&#xe632;" d="M516.989 937.055l-128.348-366.811-388.641 1.722 309.221-235.474-91.424-277.109-30.289-91.931 319.452 221.292 313.425-229.801-27.858 92.69-83.978 279.54 315.451 227.066-388.539 8.712-118.471 370.103zM514.254 732.985l73.544-229.852 241.248-5.369-195.865-140.96 6.686-22.134 62.756-208.984-194.599 142.682-198.347-137.415 68.378 207.211 7.192 21.932-18.386 14.030-173.528 132.147 241.248-1.064 7.648 21.83 72.025 205.945z" />
<glyph unicode="&#xe633;" d="M512 960c-282.77 0-512-229.23-512-512s229.23-512 512-512c282.77 0 512 229.23 512 512 0 282.77-229.23 512-512 512zM515.375 780.875l80.687-251.937 264.438-5.938-214.688-154.5 76.063-253.375-213.313 156.437-217.437-150.687 82.875 251.25-210.5 160.25 264.562-1.187 87.313 249.687z" />
<glyph unicode="&#xe634;" d="M820.36-41.063l-313.408 229.822-319.459-221.333 121.725 369.087-309.218 235.428 388.638-1.713 128.352 366.835 118.466-370.146 388.544-8.712-315.422-227.049z" />
<glyph unicode="&#xe635;" d="M242.471 154.565v-83.538h403.505v83.538h-403.505zM249.301 304.829l-5.779-83.538 402.455-27.321 5.254 83.013-401.929 27.846zM125.307 339.505v-403.505h637.833v403.505h-66.725v-336.254h-504.382v336.254h-66.725zM279.774 482.414l-19.965-80.911 391.421-97.199 19.965 81.437-391.421 96.673zM366.465 684.692l-42.557-71.979 347.813-204.38 42.557 72.505-347.813 203.854zM578.725 876.462l-69.352-46.76 224.345-334.678 69.353 46.235-224.345 335.204zM849.831 960l-83.013-9.983 48.862-400.353 83.013 9.983-48.862 400.353z" />
<glyph unicode="&#xe636;" d="M512 960c-282.77 0-512-229.225-512-512 0-123.356 43.652-236.482 116.312-324.875 201.19 213.297 601.007 148.124 700.563-86.437 125.658 93.301 207.125 242.778 207.125 411.312 0 282.775-229.23 512-512 512zM819.75 693.438c46.964-15.45 28.73-95.098-6.688-92.938-195.109 62.14-345.109 94.135-571.062 59.375-46.964 15.451-28.73 95.098 6.688 92.938 201.427 17.552 376.551 12.54 571.062-59.375zM752.938 542.75c39.759-13.12 24.383-80.588-5.688-78.75-165.324 52.633-292.418 79.732-483.875 50.312-39.803 13.093-24.32 80.579 5.688 78.75 170.463 15.076 319.309 10.484 483.875-50.312zM698.313 393.812c33.471-11.032 20.541-67.858-4.75-66.312-139.258 44.38-246.335 67.191-407.625 42.375-33.495 11.052-20.523 67.861 4.812 66.312 143.999 12.552 268.391 9.103 407.562-42.375zM454.313 104.625c-78.978 0-150.050-42.395-183.375-108.438 71.839-38.41 153.907-60.187 241.062-60.187 52.651 0 103.446 7.927 151.25 22.688-38.528 80.444-126.656 145.937-208.938 145.937z" />
<glyph unicode="&#xe637;" d="M0 660.984h241.312l363.016 295.869v-1017.705l-363.016 295.869h-241.312zM740.721 709.246c71.344-71.344 107.716-158.076 109.115-260.197 0-97.923-36.372-181.858-109.115-251.803l-73.443 75.541c50.361 50.361 75.541 109.814 75.541 178.361 0 69.945-25.18 130.798-75.541 182.557l73.443 75.541zM866.623 833.049c104.918-104.918 157.377-231.519 157.377-379.803s-52.459-275.585-157.377-381.902l-77.639 77.639c83.934 82.536 125.902 183.607 125.902 303.213 0 119.607-41.967 221.377-125.902 305.312z" />
<glyph unicode="&#xe638;" d="M621.926 669.309c-23.764-0.166-47.615-4.113-70.457-12.391-4.758-1.783-12.468-4.393-15.849-12.135l1.041-409.564c2.021-4.455 4.681-6.929 9.125-8.517h364.146c59.519-1.045 105.902 49.864 113.409 111.872 6.429 67.139-34.598 127.266-106.589 137.695-20.449 2.951-45.926 0.020-66.646-8.165-0.694-0.311-0.892 0.471-1.425 5.379-5.114 44.968-23.964 84.618-54.255 121.862-41.706 45.944-106.8 74.42-172.499 73.963zM509.109 639.355c-6.946 0-13.596-98.901-14.696-296.715 17.016-151.699 15.101-155.638 31.17 0-2.282 197.825-9.527 296.718-16.473 296.715zM465.1 615.806c-6.946-0.215-13.447-91.483-14.264-273.165 17.016-151.699 15.101-155.638 31.17 0-2.565 182.542-9.959 273.38-16.906 273.165zM337.41 587.582c-0.052 0-0.108 0-0.16-0.020-6.535-0.988-12.675-82.352-14.328-244.925 17.016-151.699 15.085-155.638 31.154 0-3.131 162.722-10.074 244.651-16.666 244.941zM380.283 579.929c-6.734 0.138-13.254-78.813-14.921-237.289 17.016-151.699 15.101-155.638 31.17 0-2.565 157.921-9.515 237.15-16.249 237.289zM295.226 576.743c-7.017-0.074-13.372-78.174-13.624-234.103 17.016-151.699 15.085-155.638 31.154 0-2.848 156.223-10.513 234.176-17.53 234.103zM422.611 572.101c-0.053 0.001-0.105 0-0.16-0.020-6.876-1.064-13.254-78.61-14.072-229.444 17.016-151.699 15.101-155.638 31.17 0-2.826 153.879-10.108 229.33-16.938 229.46zM253.698 561.903c-6.045 0.058-11.776-71.853-14.552-219.262 17.016-151.699 15.101-155.638 31.17 0-4.011 144.894-10.477 219.204-16.618 219.262zM213.019 521.143c-5.744 0.351-11.539-58.799-15.753-178.503 17.016-151.699 15.101-155.638 31.17 0-3.98 118.3-9.673 178.152-15.417 178.503zM130.267 461.845c-3.401-0.69-6.754-38.213-14.232-113.97 16.089-150.022 14.28-153.919 29.473 0-8.17 76.183-11.732 114.681-15.241 113.97zM89.236 458.739c-3.401-0.676-6.754-37.46-14.232-111.712 16.089-147.042 14.28-150.861 29.473 0-8.045 73.521-11.623 111.235-15.081 111.712-0.054 0-0.106 0.020-0.16 0zM170.707 457.042c-3.597-0.69-7.14-38.229-15.049-113.986 17.016-150.022 15.101-153.918 31.17 0-8.508 75.011-12.289 113.499-15.945 113.986-0.057 0-0.119 0.020-0.176 0zM49.341 438.648c-3.401-0.569-6.77-31.542-14.248-94.038 16.089-123.762 14.28-126.976 29.473 0-8.045 61.88-11.607 93.637-15.065 94.038-0.054 0-0.106 0-0.16 0zM11.639 404.676c-2.78-0.366-5.525-20.276-11.639-60.483 13.154-79.621 11.673-81.689 24.094 0-6.68 40.434-9.587 60.86-12.455 60.483z" />
<glyph unicode="&#xe639;" d="M512 960c-282.77 0-512-229.23-512-512s229.23-512 512-512c282.77 0 512 229.23 512 512 0 282.77-229.23 512-512 512zM244.188 715.812h535.625v-535.625h-535.625v535.625zM419.25 613.938c-31.935 0-57.812-25.878-57.812-57.813s25.878-57.813 57.812-57.813c31.935 0 57.875 25.878 57.875 57.813 0 31.935-25.94 57.813-57.875 57.813zM599.5 613.938c-31.935 0-57.812-25.878-57.812-57.813s25.878-57.813 57.812-57.813c31.935 0 57.812 25.878 57.812 57.813 0 31.935-25.878 57.813-57.812 57.813zM325.875 431.875c0-102.795 83.33-186.125 186.125-186.125 102.795 0 186.125 83.33 186.125 186.125h-372.25z" />
<glyph unicode="&#xe63a;" d="M0 960v-1024h1024v1024zM334.75 765.25c61.049 0 110.562-49.451 110.562-110.5s-49.513-110.562-110.562-110.562c-61.049 0-110.563 49.514-110.563 110.562 0 61.049 49.514 110.5 110.563 110.5zM679.312 765.25c61.049 0 110.5-49.451 110.5-110.5s-49.451-110.562-110.5-110.562c-61.049 0-110.562 49.514-110.562 110.562 0 61.049 49.513 110.5 110.562 110.5zM156.187 417.188h711.625c0-196.511-159.301-355.875-355.812-355.875s-355.813 159.364-355.813 355.875z" />
<glyph unicode="&#xe63b;" d="M53.149 959.999l0.001-494.622c-11.764 7.837-32.732 14.395-43.51 6.517-10.393-12.016 4.38-29.55 10.894-40.754 64.568-64.987 130.734-106.749 208.697-140.774-17.637-55.206-22.824-110.52-17.378-165.22 11.591-95.607 76.913-188.462 179.356-189.147 48.996 1.118 101.73 36.429 102.192 86.954v215.246c12.432-3.554 24.598-8.793 36.961-10.894v-201.078c0-14.494 3.426-27.003 10.31-37.512 21.249-30.706 55.646-49.228 91.85-49.475 107.208 4.28 167.276 92.317 179.388 189.147 5.247 57.238-2.369 115.196-17.41 165.252 71.083 35.893 200.612 88.582 223.384 171.185 1.025 10.249-8.623 14.063-16.567 14.136-12.859-0.528-23.271-5.312-32.875-12.482l0.001 493.52zM106.386 905.629h807.684v-471.765c-13.466-8.547-26.501-14.207-40.203-20.652l-715.282-7.619c-18.519 7.065-34.601 18.521-52.199 26.099zM373.344 655.27c-66.64 0-120.64-54.033-120.64-120.673s54-120.64 120.64-120.64c66.64 0 120.673 54 120.673 120.64 0 66.64-54.033 120.673-120.673 120.673zM659.334 655.27c-66.64 0-120.64-54.033-120.64-120.673s54-120.64 120.64-120.64c66.64 0 120.673 54 120.673 120.64 0 66.64-54.033 120.673-120.673 120.673z" />
<glyph unicode="&#xe63c;" d="M797.287 320.534c0.536 79.814-46.71 132.879-111.197 162.687-31.757 13.573-64.292 24.658-95.312 32.318-42.058 10.638-81.374 17.706-123.248 29.58-33.936 8.022-75.487 34.056-76.688 64.637 7.714 54.251 73.788 66.528 113.936 66.828 60.029 2.291 97.648-27.821 123.796-72.306 19.15-32.088 34.688-51.163 70.114-51.49 38.561 2.171 68.512 32.643 69.019 67.923-5.386 79.456-76.295 125.266-141.324 146.802-83.982 21.225-176.192 21.856-254.165-7.669-74.169-27.396-125.158-88.978-125.987-162.14 3.722-134.445 138.886-173.096 239.923-195.006 30.773-6.133 60.439-12.543 88.739-21.911 37.85-13.743 69.592-34.496 70.114-74.497 0-24.102-12.051-44.186-36.153-60.255-51.569-25.376-115.244-39.041-166.522-12.051-36.607 17.49-54.362 47.016-69.019 79.974-15.325 34.096-34.198 55.483-70.114 55.872-37.654-1.404-70.677-28.427-71.21-63.541 5.966-70.253 55.077-128.149 110.649-157.758 105.24-43.218 221.357-51.595 323.184-9.86 79.143 33.968 130.641 103.017 131.465 181.859zM987.91 340.254c18.989-39.439 28.484-81.070 28.484-124.891-1.672-76.477-31.987-147.381-81.618-197.745-57.072-53.416-125.721-81.098-197.745-81.618-47.557 0.802-92.273 12.002-131.465 32.866-91.535-15.9-198.101-2.772-276.076 30.127-118.313 53.434-209.030 147.958-256.904 256.904-36.762 98.14-46.889 190.341-27.936 284.84-62.783 113.425-44.070 250.435 43.274 339.069 96.771 92.539 236.599 104.283 346.738 38.892 156.515 25.274 317-30.396 422.878-134.751 91.257-95.2 140.449-219.961 141.324-340.713-0.15-35.65-3.989-70.611-10.955-102.981z" />
<glyph unicode="&#xe63d;" d="M819.2-64v1024h204.8v-1024h-204.8zM546.133 704h204.8v-768h-204.8v768zM273.067 448h204.8v-512h-204.8v512zM0 192h204.8v-256h-204.8v256z" />
<glyph unicode="&#xe63e;" d="M512 960c-282.77 0-512-229.23-512-512s229.23-512 512-512c282.77 0 512 229.23 512 512 0 282.77-229.23 512-512 512zM253.938 743.688l91.125-28.625c12.064-3.962 20.099-15.165 21.5-26.625l5.125-50.188 412.625-46.062c17.718-3.433 30.167-19.429 27.688-35.875l-25.625-144.375c-3.262-15.101-15.769-25.454-29.688-25.625h-366.562l-7.188-40.938h348.125c18.203-0.641 31.537-14.503 31.75-30.688-0.755-18.464-15.638-30.549-31.75-30.75h-385c-19.419 1.606-33.674 16.994-30.688 35.812l16.375 90.125-25.625 251.938-70.625 22.5c-8.192 2.731-14.341 7.866-18.438 15.375-7.749 16.24-0.511 34.222 13.312 42 7.89 4.102 15.596 4.613 23.562 2zM392.688 266.25c26.51 0 48-21.49 48-48s-21.49-48-48-48c-26.51 0-48 21.49-48 48 0 26.51 21.49 48 48 48zM674.438 266.25c26.51 0 48-21.49 48-48s-21.49-48-48-48c-26.51 0-48 21.49-48 48 0 26.51 21.49 48 48 48z" />
<glyph unicode="&#xe63f;" d="M1023.487 595.316l-42.942-246.354c-5.296-27.214-26.979-43.762-51.983-44.072h-626.054l-12.431-70.064h596.673c31.419-2.387 52.73-24.645 53.113-53.113-2.284-31.353-24.539-52.724-53.113-53.113h-659.956c-35.692 3.21-56.975 31.661-53.113 63.283l28.251 153.689-42.942 431.684-122.047 38.422c-29.824 11.842-41.997 38.823-35.032 66.674 11.582 29.027 39.335 42.288 66.674 35.032l155.949-49.723c21.009-7.876 33.094-25.073 36.162-45.202l9.040-85.885 707.419-79.104c32.503-7.040 50.148-32.786 46.333-62.153zM388.499 17.081c0-44.78-36.301-81.081-81.081-81.081-44.78 0-81.081 36.301-81.081 81.081 0 44.78 36.301 81.081 81.081 81.081 44.78 0 81.081-36.301 81.081-81.081zM872.554 17.081c0-44.78-36.301-81.081-81.081-81.081s-81.081 36.301-81.081 81.081c0 44.78 36.301 81.081 81.081 81.081 44.78 0 81.081-36.301 81.081-81.081z" />
<glyph unicode="&#xe640;" d="M643.885 900.216v-251.059c-228.040-0.006-643.885-2.507-643.885-713.157 47.147 475.222 263.732 478.21 643.885 478.215v-274.17l380.115 380.115-380.115 380.054z" />
<glyph unicode="&#xe641;" d="M0 960v-1024h1024v534.625l-168-178.125v-188.5h-688v688h338.5v168h-506.5zM732.042 960v-192.833c-175.15-0.004-494.542-1.924-494.542-547.75 36.212 365.002 202.559 367.287 494.542 367.292v-210.583l291.958 291.958-291.958 291.917z" />
<glyph unicode="&#xe642;" d="M512 960c-282.77 0-512-229.23-512-512s229.23-512 512-512c282.77 0 512 229.23 512 512 0 282.77-229.23 512-512 512zM547.125 738.125c136.988 0 248-111.075 248-248.063s-111.012-248-248-248c-41.456 0-80.527 10.142-114.875 28.125 0.035-0.159 0.091-0.342 0.125-0.5l-111.875-111.813-91.625 91.687 107.875 107.938c0.178 0.080 0.384 0.11 0.562 0.188-24.223 38.308-38.25 83.702-38.25 132.375 0 136.988 111.075 248.063 248.063 248.063zM547.125 627.938c-76.129 0-137.875-61.746-137.875-137.875s61.746-137.812 137.875-137.812c76.129 0 137.813 61.684 137.813 137.812 0 76.129-61.684 137.875-137.813 137.875z" />
<glyph unicode="&#xe643;" d="M573.98 960c-241.755 0-437.758-195.97-437.758-437.724 0-85.898 24.734-166.027 67.484-233.634-0.314-0.137-0.622-0.26-0.937-0.402l-190.474-190.44 161.8-161.8 197.332 197.366c-0.060 0.278-0.139 0.557-0.201 0.836 60.617-31.736 129.592-49.684 202.752-49.684 241.755 0 437.724 196.003 437.724 437.758 0 241.755-195.97 437.724-437.724 437.724zM573.98 765.545c134.351 0 243.236-108.919 243.236-243.269 0-134.351-108.885-243.269-243.236-243.269-134.351 0-243.269 108.919-243.269 243.269 0 134.351 108.919 243.269 243.269 243.269z" />
<glyph unicode="&#xe644;" d="M434.875 960v-133.312c-151.534-30.699-270.864-150.028-301.563-301.563h-133.312v-154.25h133.312c30.699-151.534 150.028-270.864 301.563-301.563v-133.312h154.25v133.312c151.534 30.699 270.864 150.028 301.563 301.563h133.312v154.25h-133.312c-30.699 151.534-150.028 270.864-301.563 301.563v133.312h-154.25zM434.875 723.938v-149.625h154.25v149.625c96.205-26.83 171.983-102.608 198.813-198.813h-149.625v-154.25h149.625c-26.83-96.205-102.608-171.983-198.813-198.813v149.625h-154.25v-149.625c-96.205 26.83-171.983 102.608-198.813 198.813h149.625v154.25h-149.625c26.83 96.205 102.608 171.983 198.813 198.813z" />
<glyph unicode="&#xe645;" d="M512 960c-282.77 0-512-229.23-512-512s229.23-512 512-512c282.77 0 512 229.23 512 512 0 282.77-229.23 512-512 512zM213.375 695.062h597.25v-394.25h-216.875v-56.812h52.875v-43.062h-269.25v43.062h52.875v56.812h-216.875v394.25zM286.875 620.625v-245.437h450.25v245.437h-450.25z" />
<glyph unicode="&#xe646;" d="M0 871.625v-676h371.812v-97.438h-90.625v-73.812h461.625v73.812h-90.625v97.438h371.812v676h-1024zM125.938 744h772.125v-420.812h-772.125v420.812z" />
<glyph unicode="&#xe647;" d="M440.991 893.096c-76.405 0-138.35-61.945-138.35-138.35 6.548-93.321 69.495-119.898 139.049-172.151 51.719-32.723 45.385-69.2 55.812-127.869-46.038-11.66-101.219-25.495-133.983 2.358l-78.084 55.55c-0.112 0.093-0.237 0.17-0.349 0.262-23.866 19.571-54.421 31.356-87.692 31.356-58.49 0-108.422-36.301-128.655-87.604-2.664-10.305-4.366-10.246-13.363-10.219-30.6 0-55.375-24.774-55.375-55.375 0-30.6 24.774-55.375 55.375-55.375 26.443 2.945 16.988 6.113 31.967-13.625 25.284-33.118 65.174-54.502 110.051-54.502 56.443 0 104.955 33.809 126.472 82.276 24.443-14 45.585-19.263 73.455-23.058h626.68c-77.651 141.523-270.504 119.657-397.32 131.8-26.041 64.687-31.915 150.135-92.321 193.55h-0.611c28.004 25.318 45.593 61.905 45.593 102.627 0 76.405-61.945 138.35-138.35 138.35zM440.991 823.921c38.202 0 69.175-30.973 69.175-69.175s-30.973-69.175-69.175-69.175c-38.202 0-69.175 30.973-69.175 69.175 0 38.202 30.973 69.175 69.175 69.175zM197.394 475.076c38.202 0 69.175-30.973 69.175-69.175s-30.973-69.175-69.175-69.175c-38.202 0-69.175 30.973-69.175 69.175 0 38.202 30.973 69.175 69.175 69.175zM566.676 446.078c21.707 0 39.304-17.597 39.304-39.304s-17.597-39.304-39.304-39.304c-21.707 0-39.304 17.597-39.304 39.304 0 21.707 17.597 39.304 39.304 39.304zM569.646 256.633c53.326-107.778 90.229-240.056 224.819-253.729l-94.854 253.729zM153.548 180.034v-61.838h134.769v61.838zM396.097 180.034v-61.838h148.744l-28.474 61.838zM818.921 180.034l18.342-61.838h134.769v61.838z" />
<glyph unicode="&#xe648;" d="M1024-64c0 565.54-458.46 1024-1024 1024v-204.812c452.432 0 819.188-366.756 819.188-819.188h204.812zM614.375-64c0 339.324-275.051 614.375-614.375 614.375v-204.75c226.216 0 409.625-183.409 409.625-409.625h204.75zM204.813-64c0 113.108-91.705 204.812-204.812 204.812v-204.812h204.812z" />
<glyph unicode="&#xe649;" d="M1024-64c0 0-206.726 1024-206.726 1024s-255.19 0-255.19 0c0 0 7.82-236.096 7.82-236.096 0 0-115.808 0-115.808 0 0 0 7.82 236.096 7.82 236.096 0 0-255.19 0-255.19 0 0 0-206.725-1024-206.725-1024 0 0 428 0 428 0 0 0 9.763 294.78 9.763 294.78 0 0 148.473 0 148.473 0 0 0 9.763-294.78 9.763-294.78 0 0 428 0 428 0 0 0 0 0 0 0M583.316 318.949c0 0-142.633 0-142.633 0s11.502 347.276 11.502 347.276c0 0 119.628 0 119.628 0 0 0 11.502-347.276 11.502-347.276 0 0 0 0 0 0" />
<glyph unicode="&#xe64a;" d="M512-64c-282.752 0-512 229.248-512 512s229.248 512 512 512c282.752 0 512-229.248 512-512 0-282.752-229.248-512-512-512zM448 639.68l-256-191.68 256-191.68v383.36zM768 639.68l-256-191.68 256-191.68v383.36z" />
<glyph unicode="&#xe64b;" d="M256 768l-256-256h192v-320h384l-128 128h-128v192h192l-256 256zM448 704l128-128h128v-192h-192l256-256 256 256h-192v320h-384z" />
<glyph unicode="&#xe64c;" d="M690.32 845.714v-219.357h114.323v-228.608h-447.965v128.107l-356.678-237.785 356.678-237.785v128.107h667.322v667.322h-333.68z" />
<glyph unicode="&#xe64d;" d="M771.5 700.5l-259.5 259.5-259.5-259.5h173.688v-505h-173.688l259.5-259.5 259.5 259.5h-173.687v505h173.687z" />
<glyph unicode="&#xe64e;" d="M874.542 960l-205.875-205.875-151.25 151.292v-452h452l-151.292 151.25 205.875 205.875-149.458 149.458zM54.583 442.583l151.292-151.25-205.875-205.875 149.458-149.458 205.875 205.875 151.25-151.292v452h-452z" />
<glyph unicode="&#xe64f;" d="M259.5 707.5l-259.5-259.5 259.5-259.5v173.688h505v-173.688l259.5 259.5-259.5 259.5v-173.688h-505z" />
<glyph unicode="&#xe650;" d="M572 960l151.25-151.292-205.833-205.833 149.458-149.458 205.833 205.833 151.292-151.25v452h-452zM357.125 442.583l-205.833-205.833-151.292 151.25v-452h452l-151.25 151.292 205.833 205.833-149.458 149.458z" />
<glyph unicode="&#xe651;" d="M512 960c-282.77 0-512-229.23-512-512s229.23-512 512-512c282.77 0 512 229.23 512 512 0 282.77-229.23 512-512 512zM512 744.562c82.32 0 156.771-33.586 210.5-87.75l86.062 61.25v-276.25l-264.375 88.125 77.875 55.437c-30.148 24.252-68.354 38.813-110.062 38.813-97.306 0-176.188-78.882-176.188-176.188 0-97.306 78.882-176.188 176.188-176.188 65.304 0 122.193 35.592 152.625 88.375l104.375-60c-51.22-88.856-147.072-148.75-257-148.75-163.782 0-296.562 132.78-296.562 296.562 0 163.782 132.78 296.562 296.562 296.562z" />
<glyph unicode="&#xe652;" d="M512 960c-282.77 0-512-229.23-512-512s229.23-512 512-512c189.791 0 355.319 103.341 443.75 256.75l-180.25 103.688c-52.541-91.13-150.752-152.625-263.5-152.625-167.998 0-304.188 136.189-304.188 304.188 0 167.998 136.189 304.188 304.188 304.188 72.010 0 138.011-25.192 190.062-67.063l-134.437-95.625 456.375-152.188v476.938l-148.625-105.75c-92.762 93.514-221.25 151.5-363.375 151.5z" />
<glyph unicode="&#xe653;" d="M512 960c-282.77 0-512-229.23-512-512s229.23-512 512-512c282.77 0 512 229.23 512 512 0 282.77-229.23 512-512 512zM351.125 736l160.875-160.875 160.875 160.875 127.125-127.125-160.875-160.875 160.875-160.875-127.125-127.125-160.875 160.875-160.875-160.875-127.125 127.125 160.875 160.875-160.875 160.875 127.125 127.125z" />
<glyph unicode="&#xe654;" d="M512 960c-282.769 0-512-229.231-512-512s229.231-512 512-512c282.769 0 512 229.231 512 512 0 282.769-229.231 512-512 512zM512 848.75c221.329 0 400.688-179.477 400.688-400.75s-179.359-400.688-400.688-400.688c-221.329 0-400.688 179.414-400.688 400.688 0 221.273 179.359 400.75 400.688 400.75zM371.562 699.438l-111-111 140.438-140.438-140.438-140.438 111-111 140.438 140.438 140.438-140.438 111 111-140.438 140.438 140.438 140.438-111 111-140.438-140.438-140.438 140.438z" />
<glyph unicode="&#xe655;" d="M0 734.003l286.003-286.003-286.003-286.003 225.997-225.997 286.003 286.003 286.003-286.003 225.997 225.997-286.003 286.003 286.003 286.003-225.997 225.997-286.003-286.003-286.003 286.003-225.997-225.997z" />
<glyph unicode="&#xe656;" d="M512 960c-248.541 0-455.673-177.114-502.188-412h142.125c43.791 157.914 188.204 274 360.063 274 103.312 0 196.671-41.98 264.25-109.75l-164.25-164.25h412v412l-150-150c-92.642 92.672-220.604 150-362 150zM0 348v-412l150 150c92.642-92.672 220.604-150 362-150 248.541 0 455.673 177.114 502.188 412h-142.125c-43.791-157.914-188.204-274-360.063-274-103.312 0-196.671 41.98-264.25 109.75l164.25 164.25z" />
<glyph unicode="&#xe657;" d="M681.939 209.459c11.601-18.786-0.762-26.623-11.294-35.496-45.309-33.728-108.721-46.057-160.807-46.252-48.727 0.957-119.874 12.441-156.504 46.252-12.51 9.88-19.98 25.778-8.067 36.571 12.617 10.582 24.051-0.622 33.882-9.143 42.402-29.545 80.674-30.947 130.689-36.034 54.116 2.634 90.366 10.687 136.605 37.109 10.985 9.547 23.506 18.643 35.496 6.992zM868.896 880.146c-40.732 0-75.551-25.31-89.613-61.050l-198.452 48.665-82.837-234.505c-58.801-1.434-114.011-9.679-165.641-24.738-51.63-15.059-97.505-35.141-137.662-60.239-21.513 19.361-47.337 29.050-77.455 29.050-16.493 0-31.731-3.047-45.714-9.143-13.983-6.096-26.366-14.532-37.123-25.289-10.756-10.756-19.161-23.3-25.256-37.641-6.095-14.341-9.143-29.387-9.143-45.163 0-20.795 4.844-39.819 14.525-57.029 9.681-17.21 22.737-31.197 39.23-41.953-0.717-5.736-1.423-11.639-2.14-17.735-0.717-6.096-1.070-12.383-1.070-18.837 0-42.308 11.998-82.28 36.020-119.927 24.022-37.647 57.033-70.433 98.983-98.399 41.95-27.966 90.711-50.038 146.286-66.172 55.575-16.134 115.243-24.186 179.064-24.186 63.104 0 122.645 8.052 178.578 24.186 55.933 16.134 104.855 38.206 146.804 66.172 41.95 27.966 74.961 60.752 98.983 98.399 24.022 37.647 36.020 77.619 36.020 119.927 0 11.474-1.091 23.311-3.242 35.502 17.21 10.756 30.845 24.936 40.883 42.505 10.039 17.568 15.076 36.753 15.076 57.548 0 15.776-3.047 30.822-9.143 45.163-6.096 14.341-14.532 26.885-25.289 37.641-10.756 10.756-23.3 19.193-37.641 25.289-14.341 6.096-29.773 9.143-46.265 9.143-28.684 0-54.476-9.688-77.422-29.050-38.723 24.381-82.833 44.11-132.312 59.169-49.479 15.059-102.539 23.656-159.189 25.808l67.761 190.379 168.138-39.425c0-0.119 0-0.238 0-0.357 0-53.168 43.091-96.259 96.259-96.259 53.168 0 96.292 43.091 96.292 96.259 0 53.168-43.124 96.292-96.292 96.292zM510.898 596.685c58.084 0 112.941-7.154 164.571-21.495 51.63-14.341 96.639-33.718 135.003-58.099 38.365-24.381 68.68-53.253 90.91-86.598 22.23-33.345 33.329-68.665 33.329-105.953 0-37.289-11.099-72.416-33.329-105.402-22.228-32.986-52.544-61.666-90.91-86.047-38.364-24.381-83.373-43.758-135.003-58.099-51.63-14.342-106.487-21.495-164.571-21.495-58.084 0-112.941 7.154-164.571 21.495-51.63 14.342-96.447 33.718-134.452 58.099-38.005 24.381-68.096 53.061-90.326 86.047-22.23 32.986-33.362 68.113-33.362 105.402 0 37.289 11.132 72.609 33.362 105.953 22.23 33.345 52.321 62.216 90.326 86.598 38.005 24.381 82.822 43.758 134.452 58.099 51.63 14.341 106.487 21.495 164.571 21.495zM667.007 452.312c-40.099 0-72.624-32.271-72.624-72.073 0-39.801 32.526-72.073 72.624-72.073 40.099 0 72.592 32.271 72.592 72.073 0 39.801-32.493 72.073-72.592 72.073zM365.52 451.177c-40.099 0-72.592-32.271-72.592-72.073 0-39.801 32.493-72.073 72.592-72.073 40.099 0 72.624 32.271 72.624 72.073 0 39.801-32.526 72.073-72.624 72.073zM965.901 358.419c-0.344-0.179-0.682-0.386-1.038-0.648 0.351 0.262 0.686 0.473 1.038 0.648z" />
<glyph unicode="&#xe658;" d="M512-64c-282.752 0-512 229.248-512 512s229.248 512 512 512c282.752 0 512-229.248 512-512 0-282.752-229.248-512-512-512zM512 704c-141.376 0-256-114.624-256-256s114.624-256 256-256c141.376 0 256 114.624 256 256 0 141.376-114.624 256-256 256z" />
<glyph unicode="&#xe659;" d="M798.657 923.987v-158.772h-146.746c-46.428 0-97.694-22.663-140.568-65.98-42.875-43.317-89.465-107.576-163.438-213.251-74.305-106.15-115.684-170.297-141.488-199.122-25.804-28.825-21.654-26.352-59.211-26.352h-147.206v-126.176h147.206c56.387 0 113.101 23.568 153.186 68.346s77.919 106.807 150.82 210.951c73.233 104.618 119.791 166.536 149.769 196.822 29.977 30.286 31.267 28.587 50.931 28.587h146.746v-165.672l225.343 225.277-225.343 225.343zM0 765.215v-126.176h147.206c37.557 0 33.407 2.538 59.211-26.287 16.602-18.546 43.953-57.878 78.072-107.447 4.625 6.634 6.803 9.832 11.698 16.824 18.586 26.551 35.468 50.507 51.062 72.354 5.427 7.604 9.972 13.603 15.115 20.701-23.057 33.314-42.262 59.735-61.971 81.752-40.085 44.778-96.799 68.28-153.186 68.28h-147.206zM798.657 422.633v-162.123h-146.746c-19.664 0-20.953-1.634-50.931 28.653-19.829 20.033-47.91 55.546-85.169 106.461-4.506-6.391-8.153-11.45-12.88-18.204-26.088-37.269-44.074-64.156-62.957-92.004 26.789-35.481 49.595-63.040 71.369-85.038 42.875-43.317 94.14-66.045 140.568-66.045h146.746v-162.321l225.343 225.277-225.343 225.343z" />
<glyph unicode="&#xe65a;" d="M512 960c-282.77 0-512-229.23-512-512s229.23-512 512-512c282.77 0 512 229.23 512 512 0 282.77-229.23 512-512 512zM472.812 719l22-101.312c-64.461-14.269-123.738-32.826-118.937-104.813h75.75v-269.625h-228.187v252c0.081 200.27 147.116 216.564 249.375 223.75zM778.5 719l22.062-101.312c-64.461-14.269-123.738-32.826-118.937-104.813h75.75v-269.625h-228.187v252c0.081 200.27 147.053 216.564 249.312 223.75z" />
<glyph unicode="&#xe65b;" d="M442.43 780.214c-181.455-12.751-442.287-41.722-442.43-397.093v-447.121h404.91v478.388h-134.449c-8.518 127.738 96.669 160.721 211.053 186.040l-39.084 179.786zM984.916 780.214c-181.455-12.751-442.287-41.722-442.431-397.093v-447.121h404.91v478.388h-134.449c-8.518 127.738 96.669 160.721 211.053 186.040l-39.084 179.786z" />
<glyph unicode="&#xe65c;" d="M512 960c-282.77 0-512-229.23-512-512s229.23-512 512-512c282.77 0 512 229.23 512 512 0 282.77-229.23 512-512 512zM502.75 831.688c62.131-0.15 112.049-19.797 146.875-55.75s50.795-80.113 51.125-124.313c-0.431-46.578-3.988-68.023-41.438-124.313-37.449-56.29-131.604-137.744-113.812-229.187l-71.875 1.25c-31.835 64.060-23.747 141.119 0.5 192.125s42.42 67.396 62.125 114.562c19.705 47.167-26.983 100.454-69.562 100.813-42.579 0.359-58.799-17.221-72.125-47.313h-58.312c-5.036 2.908-15.898 6.149-12.312 59.313 3.585 53.163 116.682 112.963 178.812 112.813zM506.375 238.5c48.075 0 86.937-38.925 86.937-87s-38.862-87.188-86.937-87.188c-48.075 0-87 39.112-87 87.188 0 48.075 38.925 87 87 87z" />
<glyph unicode="&#xe65d;" d="M499.676 960c-82.904 0.2-233.808-79.59-238.592-150.528-4.784-70.938 9.664-75.309 16.384-79.189h77.824c17.782 40.153 39.441 63.625 96.256 63.147 56.815-0.479 119.136-71.549 92.843-134.485-26.293-62.937-50.59-84.858-82.944-152.917-32.354-68.059-43.161-170.864-0.683-256.341l95.915-1.707c-23.74 122.016 101.923 230.725 151.893 305.835 49.97 75.11 54.72 103.737 55.296 165.888-0.44 58.978-21.797 117.914-68.267 165.888-46.469 47.974-113.022 74.211-195.925 74.411zM504.455 168.448c-64.149 0-116.053-51.905-116.053-116.053 0-64.149 51.904-116.395 116.053-116.395 64.149 0 116.053 52.246 116.053 116.395 0 64.149-51.904 116.053-116.053 116.053z" />
<glyph unicode="&#xe65e;" d="M0 960v-465.333h465.333v465.333h-465.333zM558.667 960v-465.333h465.333v465.333h-465.333zM92.667 867.333h280v-280h-280v280zM651.333 867.333h280v-280h-280v280zM186 772.667v-92.667h94v92.667h-94zM744 772.667v-92.667h92.667v92.667h-92.667zM0 401.333v-465.333h465.333v465.333h-465.333zM558.667 401.333v-465.333h92.667v278.667h92.667v-92.667h280v279.333h-92.667v-92.667h-94.667v92.667h-278zM92.667 308.667h280v-280h-280v280zM186 216v-94h94v94h-94zM744 28.667v-92.667h92.667v92.667h-92.667zM931.333 28.667v-92.667h92.667v92.667h-92.667z" />
<glyph unicode="&#xe65f;" d="M402.558 960c-80.252 0-145.3-65.113-145.3-145.443 0-39.723 15.892-75.748 41.679-101.997h-298.936v-242.405c26.644 30.812 66.038 50.351 109.945 50.351 80.252 0 145.3-65.113 145.3-145.443 0-80.33-65.049-145.443-145.3-145.443-43.907 0-83.301 19.539-109.945 50.351v-343.971h314.027c-33.207 26.657-54.47 67.583-54.47 113.506 0 80.33 65.049 145.443 145.3 145.443 80.252 0 145.3-65.113 145.3-145.443 0-45.923-21.263-86.849-54.47-113.506h280.109v303.834c26.307-26.407 62.704-42.727 102.903-42.727 80.251 0 145.3 65.113 145.3 145.443 0 80.33-65.049 145.443-145.3 145.443-40.199 0-76.596-16.32-102.903-42.727v267.293h-269.617c25.793 26.251 41.679 62.268 41.679 101.997 0 80.33-65.049 145.443-145.3 145.443z" />
<glyph unicode="&#xe660;" d="M313.562 834.437v-154.625h-40.437l-238.813-101.625h955.375l-238.813 101.625h-40.437v154.625h-396.875zM0 518.812v-310.938h158.5l-55.688-271.875h818.375l-55.688 271.875h158.5v310.938h-1024zM248.688 401.625h526.562l80-390.625h-686.562l80 390.625z" />
<glyph unicode="&#xe661;" d="M512 929.872c-282.759 0-512-229.241-512-512 0-216.949 135.020-402.185 325.552-476.707v45.106c-166.911 72.175-283.718 238.155-283.718 431.602 0 259.709 210.457 470.338 470.165 470.338 259.709 0 470.165-210.629 470.165-470.338 0-193.447-116.806-359.427-283.718-431.602v-45.106c190.611 74.484 325.552 259.701 325.552 476.707 0 282.759-229.241 512-512 512zM511.828 828.299c-192.86 0-349.138-156.45-349.138-349.31 0-130.378 71.462-243.899 177.323-303.86v37.358c-87.377 56.463-145.302 154.69-145.302 266.502 0 175.187 141.929 317.288 317.116 317.288 175.187 0 317.288-142.101 317.288-317.288 0-111.812-58.046-210.039-145.474-266.502v-37.358c105.912 59.961 177.496 173.482 177.496 303.86 0 192.86-156.45 349.31-349.31 349.31zM512 715.19c-115.254 0-208.656-93.402-208.656-208.656 0-58.726 24.321-111.692 63.354-149.606v49.065c-19.765 28.557-31.333 63.194-31.333 100.541 0 97.583 79.052 176.635 176.635 176.635 97.583 0 176.807-79.052 176.807-176.635 0-37.347-11.536-71.984-31.333-100.541v-48.893c38.931 37.902 63.182 90.796 63.182 149.434 0 115.254-93.402 208.656-208.656 208.656zM512 606.386c-55.13 0-99.852-44.722-99.852-99.852s44.722-99.68 99.852-99.68c55.13 0 99.852 44.55 99.852 99.68 0 55.13-44.722 99.852-99.852 99.852zM512 381.030c-119.697 0-121.2-44.073-121.2-44.073s-0.461-128.667 10.33-195.917c10.791-67.249 55.779-205.041 55.779-205.041h110.182c0 0 45.006 138.305 55.779 205.558 10.773 67.252 10.33 195.4 10.33 195.4 0 0-1.502 44.073-121.2 44.073z" />
<glyph unicode="&#xe662;" d="M512 960c-282.77 0-512-229.23-512-512s229.23-512 512-512c282.77 0 512 229.23 512 512 0 282.77-229.23 512-512 512zM430.25 736.562h163.5v-206.812h206.812v-163.5h-206.812v-206.812h-163.5v206.812h-206.812v163.5h206.812v206.812z" />
<glyph unicode="&#xe663;" d="M367 960v-367h-367v-290h367v-367h290v367h367v290h-367v367h-290z" />
<glyph unicode="&#xe664;" d="M512 960c-282.752 0-512-229.248-512-512s229.248-512 512-512c282.752 0 512 229.248 512 512 0 282.752-229.248 512-512 512zM512 841.25c217.172 0 393.25-176.078 393.25-393.25s-176.078-393.25-393.25-393.25c-217.172 0-393.25 176.078-393.25 393.25 0 217.172 176.078 393.25 393.25 393.25zM384 703.625v-511.25l384 255.625-384 255.625z" />
<glyph unicode="&#xe665;" d="M512-64c-282.752 0-512 229.248-512 512s229.248 512 512 512c282.752 0 512-229.248 512-512 0-282.752-229.248-512-512-512zM384 703.616v-511.232l384 255.616-384 255.616z" />
<glyph unicode="&#xe666;" d="M85.333 960l853.333-512-853.333-512z" />
<glyph unicode="&#xe667;" d="M273.92-33.28h102.4l229.786 409.651h264.294c0 0 153.6 0 153.6 71.629 0 71.68-153.6 71.68-153.6 71.68h-264.294l-229.786 409.6h-102.4l127.386-409.6h-183.654l-115.251 102.451h-102.4l81.971-174.080-81.971-174.131h102.4l115.251 102.451h183.654l-127.386-409.651z" />
<glyph unicode="&#xe668;" d="M512 960c304.174-5.688 510.014-238.955 512-512-5.44-290.921-238.955-510.014-512-512-50.51 0.196-99.824 8.057-144.864 21.011 9.584 15.482 19.167 32.622 28.752 51.421 20.212 41.089 29.442 85.094 39.81 127.171 4.423 18.062 10.69 41.837 18.799 71.326 8.847-16.956 24.881-31.701 48.104-44.233 60.617-29.493 135.713-19.749 189.65 7.741 75.671 42.981 120.012 109.741 143.758 184.674 45.724 173.774-13.234 340.854-170.851 408.052-190.050 57.245-402.149-14.199-476.060-184.121-32.27-113.556-30.36-259.351 81.832-306.868 5.901-2.212 11.245-2.212 16.035 0 10.53 6.016 22.742 58.159 20.458 69.114-0.738 3.317-3.317 7.925-7.741 13.823-62.005 83.941-24.217 208.863 33.728 271.482 98.532 84.632 251.884 98.375 342.255 17.693 80.157-93.511 61.952-239.043 10.505-331.749-28.427-45.334-66.56-79.593-117.771-80.173-53.905 1.194-94.563 46.808-80.726 98.419 11.759 60.569 44.386 124.804 45.339 181.356-2.605 47.038-26.16 76.871-69.667 77.408-69.451-8.757-97.488-73.691-98.419-132.7 2.219-28.357 3.94-57.218 16.587-80.726-14.744-59.715-26.172-107.819-34.281-144.311-12.431-64.746-36.806-132.463-40.363-195.179-1.106-20.642-1.29-39.81-0.553-57.503-189.718 89.969-305.194 265.709-306.315 468.872 5.526 295.504 238.955 510.014 512 512z" />
<glyph unicode="&#xe669;" d="M0 875.312v-854.625h1024v854.625h-1024zM78.562 795.438h866.875v-694.875h-866.875v694.875zM257.25 695.125c-24.448 0-45.018-8.331-61.688-25-16.669-16.669-25-37.239-25-61.687 0-23.337 8.331-43.331 25-60 16.669-16.669 37.239-25 61.688-25 23.337 0 43.331 8.331 60 25 16.669 16.669 25 36.663 25 60 0 24.448-8.331 45.018-25 61.687-16.669 16.669-36.663 25-60 25zM625.625 652.875l-196.687-298.375-104.438 86.688-153.938-200v-58.375h682.875v234.5l-227.813 235.563z" />
<glyph unicode="&#xe66a;" d="M777.24 873.042c151.951-94.77 245.894-258.639 246.76-431.558 0-57.976-9.783-113.415-29.35-166.318h-217.41zM971.822 221.9c-80.966-162.677-240.113-266.987-413.079-284.807-88.667-5.677-184.947 11.099-256.544 42.395v242.412zM0 441.484c2.263 193.968 113.416 365.17 278.285 450.038l194.582-173.928-454.386-407.643c-12.32 44.931-18.48 88.776-18.48 131.533zM247.847 8.838c-96.688 60.592-170.525 148.523-210.887 245.673l210.887 190.234zM722.888 564.32l-390.251 351.117c59.591 20.032 121.038 32.399 179.363 32.611 73.919 0 144.215-15.219 210.887-45.656z" />
<glyph unicode="&#xe66b;" d="M512 960c-282.77 0-512-229.23-512-512s229.23-512 512-512c282.77 0 512 229.23 512 512 0 282.77-229.23 512-512 512zM237.25 708.562h549.5v-521.125h-549.5v521.125zM305.062 642.812v-285.75h413.875v285.75h-413.875z" />
<glyph unicode="&#xe66c;" d="M0 907.125v-971.125h1024v971.125h-1024zM126.375 784.625h771.25v-532.562h-771.25v532.562z" />
<glyph unicode="&#xe66d;" d="M512 960c-282.77 0-512-229.23-512-512s229.23-512 512-512c282.77 0 512 229.23 512 512 0 282.77-229.23 512-512 512zM328 756.625c10.549 0.622 20.084-5.683 27.312-16.875l70-132.75c7.37-15.729 3.183-32.574-7.812-43.812l-32.062-32.063c-1.98-2.712-3.281-5.766-3.313-9.125 12.296-47.596 49.594-91.497 82.5-121.688 32.906-30.191 68.274-71.067 114.187-80.75 5.675-1.583 12.627-2.149 16.688 1.625l37.25 37.937c12.859 9.746 31.459 14.469 45.188 6.5h0.625l126.313-74.563c18.54-11.622 20.462-34.085 7.187-47.75l-87-86.312c-12.847-13.176-29.916-17.605-46.5-17.625-73.343 2.198-142.642 38.194-199.562 75.187-93.431 67.971-179.134 152.275-232.938 254.125-20.635 42.709-44.876 97.203-42.562 144.875 0.206 17.933 5.058 35.503 17.688 47.063l87 87c6.777 5.765 13.483 8.627 19.812 9z" />
<glyph unicode="&#xe66e;" d="M1009.772 108.508l-144.372-143.214c-21.311-21.856-49.56-29.261-77.071-29.294-121.661 3.645-236.658 63.406-331.078 124.77-154.984 112.751-297.188 252.556-386.438 421.506-34.231 70.847-74.395 161.24-70.558 240.318 0.342 29.747 8.359 58.942 29.309 78.117l144.372 144.299c29.979 25.5 58.971 16.684 78.156-13.020l116.149-220.247c12.225-26.092 5.213-54.049-13.026-72.692l-53.19-53.163c-3.284-4.499-5.375-9.617-5.428-15.189 20.397-78.953 82.188-151.722 136.773-201.802 54.585-50.080 113.258-117.93 189.42-133.992 9.414-2.626 20.944-3.548 27.68 2.712l61.874 62.928c21.33 16.167 52.127 24.069 74.9 10.85h1.086l209.502-123.685c30.754-19.278 33.96-56.535 11.941-79.202z" />
<glyph unicode="&#xe66f;" d="M614.034 727.864c15.753 0 30.252-3.043 43.498-9.129 39.321-19.791 62.536-57.405 62.831-99.348v-288.916c-7.375-45.931-59.947-33.439-61.22 0v272.806c-4.686 15.557-34.725 9.106-35.443 0v-626.164c-7.639-63.938-90.26-45.17-92.367 1.074 0 127.81 0 255.621 0 383.431-5.283 24.731-40.051 13.494-40.813-1.074 1.474-127.448 1.074-254.904 1.074-382.357-8.24-63.61-90.459-47.334-92.367-1.074l-1.074 626.164c-4.815 15.221-32.651 9.383-33.295 0v-272.806c-7.375-45.931-59.947-33.439-61.22 0v288.916c0.743 40.154 15.46 80.382 50.48 99.348 11.457 6.087 25.419 9.129 41.887 9.129 72.677 0 145.353 0 218.030 0zM612.95 859.070c0-55.742-45.188-100.93-100.93-100.93-55.742 0-100.93 45.188-100.93 100.93 0 55.742 45.188 100.93 100.93 100.93 55.742 0 100.93-45.188 100.93-100.93z" />
<glyph unicode="&#xe670;" d="M512 960c-282.77 0-512-229.23-512-512s229.23-512 512-512c282.77 0 512 229.23 512 512 0 282.77-229.23 512-512 512zM684.255 800.065c15.009-0.119 29.582-5.655 40.592-16.665l85.204-85.171c23.552-23.552 21.938-63.234-3.534-88.77-25.536-25.536-65.282-27.054-88.77-3.566l-85.171 85.171c-23.552 23.488-21.906 63.298 3.566 88.77 13.532 13.566 31.103 20.365 48.113 20.231zM543.87 687.53l170.375-170.342-276.879-276.815-170.375 170.375 276.879 276.782zM222.768 378.488l179.712-179.712-224.713-45.001 45.001 224.713z" />
<glyph unicode="&#xe671;" d="M997.688 797.225l-134.419 134.419c-37.064 37.064-99.779 34.64-139.973-5.656-40.194-40.194-42.82-103.011-5.656-140.074l134.419-134.419c37.064-37.064 99.779-34.64 140.074 5.655 40.194 40.295 42.719 102.91 5.554 140.074zM140.781 343.574l268.838-268.838 436.886 436.785-268.838 268.838-436.886-436.785zM0-61.904l354.579 70.997-283.582 283.582-70.997-354.579z" />
<glyph unicode="&#xe672;" d="M512 960c-282.77 0-512-229.23-512-512s229.23-512 512-512c282.77 0 512 229.23 512 512 0 282.77-229.23 512-512 512zM282.312 713.062h155.063v-530.125h-155.063v530.125zM586.625 713.062h155.063v-530.125h-155.063v530.125z" />
<glyph unicode="&#xe673;" d="M0 960h426.667v-1024h-426.667zM597.333 960h426.667v-1024h-426.667z" />
<glyph unicode="&#xe674;" d="M987.136 566.784c-1.486-109.207-49.143-208.251-126.293-271.701-100.32-76.356-226.291-101.797-339.285-103.765v-61.44c-3.027-78.873-49.128-147.327-114.688-177.493-24.106-11.443-50.728-16.288-75.093-16.384-34.357 0.416-67.781 10.805-95.573 24.576v177.493c23.444-16.519 50.308-27.635 77.141-19.797 23.735 8.809 34.6 27.371 34.816 49.835v492.885h173.397v-307.2c39.842 0.552 79.145 4.924 115.371 12.971 47.49 11.527 92.72 29.714 126.976 60.075 42.038 40.049 60.399 87.737 60.757 139.947-0.651 77.308-39.553 141.596-98.987 178.859-67.365 38.542-142.063 51.59-213.675 51.883-77.221-1.692-153.224-16.877-215.040-55.296-63.134-40.871-97.052-108.451-97.621-175.445 4.010-48.28 16.372-115.5 49.152-146.091l-110.592-118.784c-35.885 35.89-59.533 79.83-75.093 124.245-15.273 46.979-25.748 93.748-25.941 140.629 1.887 114.012 52.552 216.931 132.437 283.989 100.798 78.801 227.355 108.624 342.699 109.227 126.288-2.147 251.1-33.95 344.064-108.544 87.176-74.103 130.299-181.36 131.072-284.672z" />
<glyph unicode="&#xe675;" d="M512 960c-282.77 0-512-229.23-512-512s229.23-512 512-512c282.77 0 512 229.23 512 512 0 282.77-229.23 512-512 512zM634.5 768.688c40.225-0.371 78.097-18.409 113.688-54 39.519-40.455 62.202-92.112 47.437-151.813-8.436-31.636-28.426-63.958-60.063-97-95.825-93.982-181.991-181.54-292.125-291.063-21.066-20.697-58.703-45.967-97-47.5-31.852 0.25-57.529 13.346-81.25 36.938-25.236 25.559-43.897 58.793-41.125 100.188 3.515 29.527 17.941 56.941 43.25 82.25l245.75 245.687c36.319 36 87.439 63.868 136 22.187 43.908-45.484 15.864-94.722-23.187-135l-226.75-225.687-43.25 44.313 225.687 225.687c10.309 10.351 31.369 28.453 23.188 47.437-10.666 9.628-36.213-11.943-47.438-23.187l-245.687-245.75c-12.288-12.376-22.972-25.384-25.313-44.25-2.109-16.169 5.252-32.69 22.125-49.563 32.711-30.338 55.478-21.673 90.687 10.5 93.685 93.685 168.869 168.053 265.25 264.188 31.684 31.684 54.582 51.654 71.187 95.438 13.096 49.349-37.583 119.511-94.937 127.562-37.643 3.512-70.469-21.203-98.063-47.438l-268.937-268.875-44.25 43.187 268.875 270c42.182 41.478 84.889 63.266 128.125 65.375 2.702 0.132 5.443 0.212 8.125 0.188z" />
<glyph unicode="&#xe676;" d="M402.519 11.77c175.849 174.873 313.402 314.661 466.405 464.721 50.513 52.758 82.505 104.394 95.975 154.907 23.574 95.323-12.67 177.869-75.77 242.463-60.616 60.616-125.441 89.24-194.476 85.872-69.035-3.368-137.228-38.166-204.578-104.394l-429.362-431.046 70.718-69.035 429.362 429.362c44.058 41.888 96.486 81.378 156.591 75.77 91.577-12.856 172.45-124.942 151.54-203.737-26.514-69.908-63.066-101.793-113.655-152.381-153.891-153.498-273.883-272.199-423.469-421.785-56.218-51.37-92.575-65.278-144.804-16.838-26.94 26.94-38.727 53.32-35.359 79.137 3.737 30.123 20.791 50.958 40.411 70.718l392.319 392.319c17.923 17.955 58.74 52.416 75.77 37.043 13.064-30.312-20.582-59.243-37.043-75.77l-360.327-360.327 69.035-70.718 362.011 360.327c62.353 64.312 107.15 142.899 37.043 215.523-77.537 66.55-159.217 22.121-217.207-35.359l-392.319-392.319c-40.411-40.411-63.423-84.189-69.035-131.334-4.426-66.095 25.373-119.149 65.667-159.958 37.875-37.669 78.794-58.534 129.651-58.932 61.148 2.448 121.271 42.724 154.907 75.77z" />
<glyph unicode="&#xe677;" d="M512.062 960c-282.748 0-512.062-229.19-512.062-511.938 0-222.286 141.753-411.454 339.751-482.198l126.204 333.753c-63.376 19.638-109.46 78.623-109.46 148.446 0 85.884 69.684 155.568 155.568 155.568 85.884 0 155.443-69.684 155.443-155.568 0-69.877-46.039-128.979-109.46-148.571l126.204-333.753c198.043 70.703 339.751 259.981 339.751 482.323 0 282.748-229.19 511.938-511.938 511.938z" />
<glyph unicode="&#xe678;" d="M512 960c-282.77 0-512-229.23-512-512s229.23-512 512-512c282.77 0 512 229.23 512 512 0 282.77-229.23 512-512 512zM731.688 720.188l106.375-106.375-438-438-214.125 214.188 105.687 105.688 107.75-107.813 332.313 332.313z" />
<glyph unicode="&#xe679;" d="M512 960c-282.769 0-512-229.231-512-512s229.231-512 512-512c282.769 0 512 229.231 512 512 0 282.769-229.231 512-512 512zM512 848.75c221.329 0 400.688-179.477 400.688-400.75s-179.359-400.688-400.688-400.688c-221.329 0-400.688 179.414-400.688 400.688 0 221.273 179.359 400.75 400.688 400.75zM708.188 691.125l-296.75-296.813-96.25 96.25-94.438-94.375 191.312-191.313 391.188 391.187-95.062 95.063z" />
<glyph unicode="&#xe67a;" d="M856.949 875.39l-521.763-521.763-169.22 169.22-165.966-165.966 336.271-336.271 687.729 687.729-167.051 167.051z" />
<glyph unicode="&#xe67b;" d="M438.562 960v-592.188h146.875v592.188h-146.875zM149.938 810.062c-92.654-92.654-149.938-220.677-149.938-362.062 0-282.77 229.23-512 512-512 282.77 0 512 229.23 512 512 0 141.385-57.284 269.409-149.938 362.062l-103.125-103.125c66.269-66.269 107.25-157.826 107.25-258.938 0-202.224-163.963-366.188-366.188-366.188-202.224 0-366.188 163.963-366.188 366.188 0 101.112 40.981 192.669 107.25 258.938l-103.125 103.125z" />
<glyph unicode="&#xe67c;" d="M1.213 422.089c-1.555 8.522-1.172 15.759-1.172 24.625v2.345c139.368 11.956 291.192 47.062 404.194 127.818 32.423-14.856 64.31-12.829 94.898 2.345 64.088-64.73 126.981-109.717 210.884-136.026 8.591-21.89 22.26-38.697 41.005-50.424-22.65-56.287-54.283-105.928-94.898-148.925-60.028 43.242-139.291 11.93-166.364-50.424-187.743 2.034-376.968 84.174-488.548 228.665zM488.589 119.547c-95.841-49.497-196.998-76.183-299.924-70.359-79.613 66.803-136.981 154.126-166.364 245.082 129.299-111.129 301.151-174.548 466.288-174.723zM700.645 133.619c109.062 22.749 209.276 66.602 290.551 133.681-106.677-278.133-427.928-405.282-691.23-287.297 85.472 12.315 165.761 41.836 234.315 80.912 68.509-39.259 150.042 2.037 166.364 72.704zM902.156 419.743c41.98 3.098 82.915 6.187 121.844 12.899-0.076-10.482-1.158-20.799-1.172-30.489-73.191-93.667-183.208-157.662-292.894-187.623 40.93 49.694 71.292 104.894 92.555 160.652 33.429 4.337 60.734 19.693 79.667 44.56zM920.901 494.792c-4.621 34.76-22.007 62.973-49.206 80.912 8.595 79.59 10.012 157.249 3.515 232.183 82.054-84.705 131.74-192.823 145.276-300.196-29.681-6.254-62.875-10.554-99.584-12.899zM350.343 629.646c-103.495-65.209-224.679-96.885-344.444-106.71 29.909 186.915 157.223 341.396 328.042 404.561 4.639-60.701 18.696-119.304 41.005-170.033-35.816-36.371-44.323-82.999-24.603-127.818zM551.854 716.422c53.943 66.977 98.79 135.42 124.187 215.766 43.738-14.854 83.182-34.007 118.329-57.459 12.276-96.583 13.982-192.782 4.686-282.606-42.435-7.243-75.797-33.063-90.211-70.358-62.648 22.68-113.932 64.912-159.334 110.228 11.403 29.421 11.834 56.998 2.343 84.43zM442.898 785.607c-21.798 53.887-36.025 106.104-36.319 162.997 65.365 15.038 135.933 14.537 197.997 2.345-23.71-66.377-61.173-127.898-100.756-178.241-13.928 5.949-47.851 19.2-60.922 12.899z" />
<glyph unicode="&#xe67d;" d="M282.358 196.998l-0.788-63.729h-281.57v63.729c0 77.248 65.051 139.123 142.299 139.123s141.054-61.881 140.059-139.123zM270.247 486.9c0-70.798-57.151-128.191-127.948-128.191-70.798 0-128.433 57.393-128.433 128.191 0 70.798 57.636 128.191 128.433 128.191 70.798 0 127.948-57.393 127.948-128.191zM631.541 206.762l-0.908-73.492h-324.709v73.493c0 89.083 75.017 160.438 164.1 160.438s162.665-71.362 161.517-160.438zM617.575 541.080c0-81.645-65.907-147.831-147.551-147.831-81.645 0-148.111 66.186-148.111 147.831 0 81.645 66.466 147.831 148.111 147.831 81.645 0 147.551-66.186 147.551-147.831zM1023.985 216.526l-1.029-83.256h-367.849v83.256c0 100.918 84.984 181.753 185.902 181.753s184.276-80.843 182.976-181.753zM1008.164 595.26c0-92.492-74.663-167.471-167.154-167.471-92.492 0-167.788 74.979-167.788 167.471 0 92.492 75.296 167.471 167.788 167.471 92.492 0 167.154-74.979 167.154-167.471z" />
<glyph unicode="&#xe67e;" d="M311.294 891.453l-25.957-674.798c-34.931 17.925-78.756 25.681-124.74 19.157-99.151-14.042-170.547-88.839-159.463-167.039 11.086-78.206 100.449-130.206 199.596-116.159 87.995 12.47 154.047 72.792 160.049 140.864l0.020-0.038c0.012 0.154 0.022 0.386 0.036 0.56 0.146 1.73 0.23 3.482 0.294 5.222 3.692 70.288 26.297 604.182 26.297 604.182l556.727 57.36-25.145-480.835c-35.727 19.885-81.646 28.743-129.932 21.901-99.151-14.056-170.541-88.837-159.457-167.047 11.082-78.198 100.445-130.208 199.596-116.146 89.869 12.72 156.825 75.366 160.337 145.212l0.043 0.042c1.884 31.388 33.295 756.173 34.405 781.786z" />
<glyph unicode="&#xe67f;" d="M0 448l176.562-176.562-0.531 123.531h282.937v-283.438l-121.969-0.531 175-175 176.562 176.562-123.531-0.531v282.937h283.438l0.531-121.969 175 175-176.562 176.562 0.531-123.531h-282.938v283.437l121.969 0.531-175 175-176.562-176.562 123.531 0.531v-282.937h-283.438l-0.531 121.969-175-175z" />
<glyph unicode="&#xe680;" d="M512 960c-282.77 0-512-229.23-512-512s229.23-512 512-512c282.77 0 512 229.23 512 512 0 282.77-229.23 512-512 512zM218 531.25h588.062v-166.5h-588.062v166.5z" />
<glyph unicode="&#xe681;" d="M0 593h1024v-290h-1024z" />
<glyph unicode="&#xe682;" d="M512 960c-282.77 0-512-229.23-512-512s229.23-512 512-512c282.77 0 512 229.23 512 512 0 282.77-229.23 512-512 512zM494.062 781v-98.75h36.563v98.75c16.87-1.379 33.576-4.742 49.813-9.688v-89.062h36.562v74.5c15.914-7.922 31.106-17.491 45-29 0.073-0.061 0.113-0.126 0.188-0.188v-364.812c-0.073-0.061-0.113-0.126-0.188-0.188-41.604-34.338-94.868-54.042-150-54.062-53.883 0.104-107.556 18.905-150 54.062-0.074 0.061-0.114 0.126-0.188 0.188v364.812c0.074 0.061 0.114 0.126 0.188 0.188 13.988 11.545 29.373 21.267 45.625 29.312v-74.812h36.625v89.312c16.134 4.882 32.814 8.112 49.812 9.438zM289.938 489.5h43.125v-165.312c48.831-39.877 111.080-63.813 178.938-63.813s130.106 23.936 178.938 63.813v165.312h43.125v-186.812c-13.385-12.353-27.831-23.557-43.125-33.563-35.234-23.052-75.092-39.519-117.938-47.625v-60.75h72.125v-45.75h-266.25v45.75h72.125v60.75c-42.845 8.106-82.703 24.573-117.938 47.625-15.293 10.006-29.74 21.21-43.125 33.563v186.812zM451 221.5c19.752-3.737 40.164-5.688 61-5.688s41.248 1.951 61 5.688v21.562h-122v-21.562z" />
<glyph unicode="&#xe683;" d="M484.375 960c-26.134-2.038-51.757-7.057-76.563-14.562v-137.313h-56.25v115.063c-24.987-12.369-48.681-27.312-70.187-45.063-0.113-0.094-0.199-0.218-0.313-0.313v-560.875c0.114-0.094 0.199-0.219 0.313-0.313 65.256-54.054 147.781-82.965 230.625-83.125 84.764 0.031 166.66 30.331 230.625 83.125 0.114 0.094 0.2 0.218 0.313 0.313v560.875c-0.114 0.094-0.2 0.219-0.313 0.313-21.361 17.694-44.72 32.383-69.187 44.563v-114.563h-56.25v136.937c-24.963 7.604-50.625 12.817-76.563 14.938v-151.875h-56.25v151.875zM170.625 511.812v-287.187c20.58-18.992 42.737-36.241 66.25-51.625 54.172-35.443 115.502-60.787 181.375-73.25v33.125h187.5v-33.125c65.873 12.463 127.203 37.807 181.375 73.25 23.513 15.384 45.67 32.633 66.25 51.625v287.187h-66.25v-254.187c-75.077-61.31-170.795-98.125-275.125-98.125-104.33 0-200.048 36.815-275.125 98.125v254.187h-66.25zM605.75 99.75c-30.369-5.746-61.716-8.75-93.75-8.75s-63.381 3.004-93.75 8.75v-93.438h-110.938v-70.312h409.375v70.312h-110.938v93.438z" />
<glyph unicode="&#xe684;" d="M512 960c-282.77 0-512-229.23-512-512s229.23-512 512-512c282.77 0 512 229.23 512 512 0 282.77-229.23 512-512 512zM512 786.562c140.957 0 255.25-114.293 255.25-255.25 0-42.698-11.7-99.064-35.75-130.937l-219.5-290.937-219.5 290.937c-26.478 35.092-35.75 83.798-35.75 130.937 0 140.957 114.293 255.25 255.25 255.25zM512 638.688c-59.309 0-107.375-48.066-107.375-107.375s48.066-107.375 107.375-107.375c59.309 0 107.375 48.065 107.375 107.375 0 59.31-48.066 107.375-107.375 107.375z" />
<glyph unicode="&#xe685;" d="M512 960c-213.182 0-386-172.818-386-386 0-71.293 13.954-144.928 54-198l332-440 332 440c36.373 48.205 54 133.424 54 198 0 213.182-172.818 386-386 386zM512 736.438c89.699 0 162.438-72.739 162.438-162.438 0-89.699-72.739-162.438-162.438-162.438-89.699 0-162.438 72.739-162.438 162.438 0 89.699 72.739 162.438 162.438 162.438z" />
<glyph unicode="&#xe686;" d="M620.799 960v-142.576h155.602l-205.105-203.741c-57.551 37.244-126.151 58.857-199.808 58.857-203.388 0-368.286-164.866-368.286-368.254 0-203.388 164.899-368.286 368.286-368.286 203.388 0 368.254 164.899 368.254 368.286 0 77.308-23.811 149.052-64.512 208.29l201.661 201.661v-154.237h142.576c0 124.992 1.354 275.333 1.332 400zM371.487 524.309c121.525 0 220.023-98.498 220.023-220.023s-98.498-220.055-220.023-220.055c-121.525 0-220.055 98.53-220.055 220.055 0 121.525 98.53 220.023 220.055 220.023z" />
<glyph unicode="&#xe687;" d="M512 960c-261.823 0-474.86-200.309-474.86-446.554 0-12.915 0.583-25.972 1.742-38.944l9.332-196.277 300.046 24.636-9.332 196.152c-0.404 4.691-0.684 9.627-0.684 14.433 0 90.112 77.969 163.305 173.757 163.305 95.787 0 173.757-73.251 173.757-163.305 0-4.807-0.221-9.684-0.684-14.433l-9.27-196.152 299.984-24.636 9.332 196.277c1.158 12.972 1.742 26.030 1.742 38.944 0 246.245-213.037 446.554-474.86 446.554zM358.089 186.961l-299.797-26.253 19.597-223.588 299.797 26.253-19.597 223.588zM665.538 185.841l-19.534-223.65 299.797-26.191 19.534 223.588-299.797 26.253z" />
<glyph unicode="&#xe688;" d="M288.949 960l-50.517-237.822-237.307-56.56 238.753-50.3 56.782-236.442 50.457 237.882 237.347 56.48-238.733 50.32-56.782 236.442zM915.456 949.188l-186.488-185.751 101.717-101.319 186.468 185.757-101.697 101.313zM661.143 695.886l-661.143-658.565 101.709-101.321 661.143 658.565-101.717 101.321zM866.143 577.945l-26.985-127.061-126.815-30.26 127.558-26.86 30.318-126.321 26.965 127.061 126.815 30.26-127.558 26.86-30.298 126.321zM658.131 347.063l-29.736-140.121-139.806-33.26 140.629-29.62 33.431-139.301 29.736 140.121 139.806 33.3-140.609 29.64-33.451 139.241z" />
<glyph unicode="&#xe689;" d="M512 960c-282.77 0-512-229.23-512-512s229.23-512 512-512c282.77 0 512 229.23 512 512 0 282.77-229.23 512-512 512zM508.312 725.625c69.143-0.329 132.342-44.421 159.188-105.937 9.183-21.427 14.062-43.437 14.062-67.313v-60.875h83.875v-321.125h-506.875v321.125h77.125c-0.699 43.013-1.585 92.22 13.5 128.188 29.329 64.777 89.982 106.267 159.125 105.937zM504.562 623.375c-38.298-0.806-63.557-29.93-67.25-71v-60.875h142.625v61.5c-1.758 38.946-31.234 69.303-71.625 70.375-1.262 0.034-2.514 0.026-3.75 0z" />
<glyph unicode="&#xe68a;" d="M505.25 959.996c-127.513 0.608-239.472-75.849-293.561-195.312-27.819-66.331-26.165-157.173-24.875-236.499h-142.187v-592.186h934.747v592.186h-154.625v112.312c0 44.031-9.065 84.672-26 124.187-49.509 113.449-165.986 194.704-293.499 195.312zM505.25 771.435c74.489-1.977 128.82-57.987 132.062-129.812v-113.437h-263.061v112.312c7.031 78.185 56.511 132.914 131 130.937z" />
<glyph unicode="&#xe68b;" d="M264.886-55.075c-89.119 22.95-154.484 104.367-164.887 194.673-19.694 136.708 38.159 270.523 115.351 380.299-14.429 32.027-34.178 49.4-62.868 6.483-52.232-72.184-90.346-154.013-115.989-239.032-16.273 109.985 63.515 215.375 114.246 292.995-9.801 44.769-64.271 104.866-62.148 103.996-28.806 35.757-60.56 108.209-30.196 150.48 41.264 69.604 117.989 127.4 201.574 125.116 52.067-12.53 77.22-66.026 109.019-104.464 11.468-15.418 22.936-30.837 34.405-46.255 115.814 61.803 246.492 115.504 380.064 90.942 98.74-15.312 180.753-96.534 197.812-194.858 33.668-165.924-38.545-332.808-135.655-464.145-100.698-132.994-235.672-250.713-400.090-293.683-58.866-12.185-121.801-17.054-180.638-2.546zM496.261 10.75c126.045 40.976 221.307 140.605 305.663 238.362 92.18 117.144 154.295 271.969 123.924 422.197-22.125 96.434-111.341 170.87-210.365 174.696-96.31 6.23-192.196-23.677-276.958-67.413-1.751-13.704 20.278-57.891 41.3-34.673 89.828 46.674 199.681 67.515 297.619 35.505 63.34-23.531 109.17-84.91 110.988-152.866 11.88-143.978-75.975-274.348-177.676-367.897-33.238-39.241-70.742-54.406-123.789-27.903-74.925 34.332-152.932 62.814-225.941 100.835-48.501 45.488-82.513 104.018-123.548 156.106-14.173-17.211-28.081-47.305-40.474-69.574-49.819-98.454-83.578-223.865-22.738-325.43 52.235-90.789 169.115-116.351 265.507-96.119 19.121 3.439 37.998 8.213 56.488 14.174zM631.295 235.107c-16.157 93.054-26.308 187.457-38.094 280.928-42.132 68.358-95.937 131.489-137.377 198.77-43.939 58.739-89.202 123.404-136.139 173.518-24.672 42.311-75.075 66.81-121.168 42.449-61.516-25.832-123.395-75.579-136.502-144.163 15.267-53.844 57.316-97.502 87.269-144.564 75.097-98.903 141.397-203.605 215.644-292.408 89.462-39.078 183.487-78.332 268.533-119.1zM382.602 384.21c-39.445 19.479-56.090 70.466-86.156 102.972-41.193 57.88-87.101 113.121-121.425 175.409 11.235 41.791 25.057 49.771 49.337 78.396 35.735 25.406 106.892 90.99 152.057 26.519 59.721-75.828 119.199-152.465 169.412-234.994l48.491-199.884-42.694-33.953c-43.022 24.57-169.021 85.535-169.021 85.535zM341.304 574.574c-34.984 47.216-67.643 96.733-107.169 140.205-50.612-33.699-18.681-77.665 8.527-119.504 45.084-58.63 85.359-121.186 133.728-177.148 68.010 62.375-22.158 127.215-35.087 156.447zM519.611 527.144c-12.358 43.513-49.435 78.74-74.008 117.152-34.391 46.217-67.91 93.111-103.654 138.302-23.252-12.529-49.167-13.673-67.664-33.062 35.084-55.027 75.010-112.156 113.799-165.356 37.744-46.978 85.359-75.513 131.527-57.036zM131.85 705.192c-38.736 46.631 21.011 97.038 54.080 126.45 30.384 25.566 69.050 44.659 107.732 38.356 24.416-3.978 54.391-35.008 33.652-48.668-50.815-33.471-115.432-56.852-149.818-114.85-16.055-30.149-26.848-30.467-45.647-1.287zM173.975 737.876c29.601 46.255 83.79 64.551 127.591 93.032-7.074 52.012-74.214 8.767-98.651-11.157-24.358-23.384-94.557-75.182-47.373-103.414 8.34 5.116 12.788 14.002 18.433 21.538zM90.786 771.464c-9.429 52.056 35.935 96.663 76.844 122.017 23.477 14.294 103.718 42.15 95.742-2.429-61.584-19.614-116.177-61.845-150.196-117.209-5.185-9.029-18.8-18.551-22.39-2.379zM750.912 351.435c60.421 80.231 111.801 185.219 80.517 287.205-30.099 90.633-139.595 120.87-225.026 103.452-34.575-12.124-114.055-13.106-109.863-54.093 36.304-52.398 75.502-102.7 113.565-153.816 12.92-94.856 23.512-191.223 38.38-284.876 39.147 27.814 71.68 65.335 102.427 102.128z" />
<glyph unicode="&#xe68c;" d="M512 960c-55.61 0-98.438-46.397-98.438-101.875 0-53.435-0.375-100.187-0.375-100.187h-98.875c-1.861 0-3.661-0.205-5.437-0.5h-27.5v-96.063h461.25v96.063h-27.5c-1.776 0.295-3.577 0.5-5.437 0.5h-98.875c0 0 1.125 42.322 1.125 99.875 0 53.435-44.328 102.188-99.938 102.188zM149.5 862.562v-926.562h725v926.562h-229.688v-67.125h163.313v-792.188h-592.187v792.188h163.25v67.125h-229.688zM512 861.312c18.218 0 32.938-14.66 32.938-32.812 0-18.185-14.72-32.875-32.938-32.875-18.218 0-32.938 14.69-32.938 32.875 0 18.152 14.72 32.812 32.938 32.812zM281.375 596.25v-32.875h32.937v32.875h-32.937zM380.25 595.625v-32.875h362.375v32.875h-362.375zM281.375 472.25v-32.875h32.937v32.875h-32.937zM380.25 471.625v-32.937h362.375v32.937h-362.375zM281.375 348.25v-32.875h32.937v32.875h-32.937zM380.25 347.562v-32.875h362.375v32.875h-362.375zM281.375 224.188v-32.875h32.937v32.875h-32.937zM380.25 223.5v-32.875h362.375v32.875h-362.375zM281.375 100.188v-32.875h32.937v32.875h-32.937zM380.25 99.5v-32.875h362.375v32.875h-362.375z" />
<glyph unicode="&#xe68d;" d="M0 120.404h184.404v-184.404h-184.404zM0 120.404h184.404v-184.404h-184.404zM0 400.269h184.404v-184.404h-184.404zM0 680.135h184.404v-184.404h-184.404zM0 960h184.404v-184.404h-184.404zM271.015 120.404h752.985v-184.404h-752.985zM271.015 120.404h752.985v-184.404h-752.985zM271.015 400.269h752.985v-184.404h-752.985zM271.015 680.135h752.985v-184.404h-752.985zM271.015 960h752.985v-184.404h-752.985z" />
<glyph unicode="&#xe68e;" d="M0 960v-1024h1024v1024h-1024zM251.125 758.688c40.559-0.457 80.511-28.438 82.25-76.875 0.867-43.071-36.668-75.879-83.313-76.875h-1.125c-40.156 0.463-79.371 29.146-81.188 76.875 0.572 42.593 36.375 75.865 83.375 76.875zM686.25 555.188c44.591-0.276 86.675-13.505 121.25-48.75 35.932-40.073 47.466-95.326 48.75-151.5v-255.5h-147.25v238.125c-0.327 44.631-15.615 98.882-74.688 100.688-34.621-0.368-59.033-20.486-75.75-54.125-4.563-10.826-5.221-23.273-5.437-35.687v-249h-147.187c0.563 124.481 1.337 248.954 1.062 373.437 0 35.36-0.341 59.17-1.062 71.437h147.187v-62.75c12.493 17.77 26.35 34.621 44.937 48.188 25.211 17.992 55.496 24.89 88.188 25.438zM176.438 544.312h147.187v-444.875h-147.187v444.875z" />
<glyph unicode="&#xe68f;" d="M273.82-64l341.88 341.9-103.5 103.48 66.42 66.42 103.48-103.5 341.9 341.88-273.82 273.82-341.88-341.9 103.5-103.48-66.42-66.42-103.48 103.5-341.9-341.88 273.82-273.82zM273.82 69.648l-140.164 140.164 208.24 208.24 36.67-36.67-67.034-67.034 66.824-66.824 67.034 67.034 36.67-36.67-208.24-208.24zM682.12 477.948l-36.67 36.67 67.034 67.034-66.824 66.824-67.034-67.034-36.68 36.68 208.24 208.26 140.18-140.172-208.26-208.24z" />
<glyph unicode="&#xe690;" d="M0 960v-204.8h1024v204.8h-1024zM0 550.4v-204.8h1024v204.8h-1024zM0 140.8v-204.8h1024v204.8h-1024z" />
<glyph unicode="&#xe691;" d="M112.343 243.611c-6.366 15.345-14.29 30.598-16.609 47.149-30.538 213.433 143.598 386.479 301.648 452.204 158.050 65.725 340.028-38.825 447.918 73.403 26.955 30.436 54.389 59.259 95.37 59.472 17.081-0.848 31.308-8.876 38.577-23.039 134.856-276.213-57.816-603.727-275.394-720.097-138.079-68.251-280.959-83.265-414.699-36.969-37.19 8.821-67 47.716-105.55 48.221-26.585-14.917-48.664-63.516-66.705-90.28-21.014-36.47-62.855-46.112-92.959-14.198-87.808 86.533 94.671 163.334 88.405 204.135zM229.68 278.972c18.858-15.235 46.062-10.917 60.544 4.286 115.791 140.295 272.578 201.843 443.095 197.169 25.127-1.458 43.39 18.889 45.006 40.72 0.504 25.925-19.445 43.457-41.791 45.006-206.091 11.456-384.892-79.416-511.14-226.102-15.992-19.969-13.088-46.537 4.286-61.080z" />
<glyph unicode="&#xe692;" d="M512 960c-282.77 0-512-229.23-512-512s229.23-512 512-512c282.77 0 512 229.23 512 512 0 282.77-229.23 512-512 512zM332.933 685.013c34.429-0.089 52.803-3.215 82.827-13.627 52.838-18.323 97.836-56.218 128.747-108.4 48.101-91.757 89.716-200.191 123.547-271.6 45.298-62.424 137.817-59.536 171.947-21.707 78.467 86.972-40.678 135.416-82.56 149.44-46.9 14.66-101.953 39.981-122.827 83.12-38.262 108.973 32.084 180.403 122.827 177.947 28.153 4.046 81.667-12.267 116.747-68.987l-45.68-24.773c-19.367 20.502-46.971 37.523-73.493 37.76-59.064 8.318-91.405-67.022-55.707-108.88 12.044-12.401 26.76-19.218 82.373-38.053 79.453-26.699 137.388-53.038 141.76-134.933 5.395-110.556-104.415-176.85-215.68-151.2-44.809 12.165-81.842 44.004-105.387 90.56-41.392 80.699-70.35 179.91-112.987 251.12-35.785 56.865-92.866 88.087-160.96 88-83.459 1.123-156.526-64.815-180.187-131.307-17.631-70.834-0.331-142.701 49.013-191.253 115.775-102.629 243.516-35.416 294.32 36.88 2.147 0 28.747-57.201 28.747-61.813-34.568-41.604-99.462-77.62-147.12-86.507-25.421-4.433-66.304-4.478-90.4-0.107-93.233 16.917-170.954 88.983-197.173 182.8-38.916 156.653 63.449 281.673 181.307 309.013 19.72 5.206 29.419 6.239 58.88 6.48 2.446 0.020 4.825 0.033 7.12 0.027z" />
<glyph unicode="&#xe693;" d="M512 960c-282.77 0-512-229.23-512-512s229.23-512 512-512c282.77 0 512 229.23 512 512 0 282.77-229.23 512-512 512zM247.438 683.625h529.125v-346.313h-529.125v346.313zM313.062 620.5v-220.125h397.875v220.125h-397.875zM181.125 305.812h661.75v-58.562l-33.625-34.875h-594.5l-33.625 34.875v58.562zM450.625 286.625v-53.063h122.75v53.063h-122.75z" />
<glyph unicode="&#xe694;" d="M102.625 812.625v-535.937h818.75v535.937h-818.75zM204.188 714.938h615.625v-340.625h-615.625v340.625zM0 227.938v-90.625l52-53.937h920l52 53.937v90.625h-1024zM417.062 198.25h189.875v-82.062h-189.875v82.062z" />
<glyph unicode="&#xe695;" d="M280.116 728.1c-154.696 0-280.116-125.388-280.116-280.084s125.42-280.116 280.116-280.116c138.001 0 252.658 99.805 275.802 231.171 0.261-0.014 0.517-0.055 0.778-0.065h107.849v-155.699h119.072v155.699h56.146v-225.339h119.072v225.34h65.164v119.071h-471.812c-0.276-0.022-0.537-0.041-0.811-0.065-31.082 120.818-140.737 210.087-271.261 210.087zM280.116 598.519c83.127 0 150.502-67.375 150.502-150.502s-67.375-150.535-150.502-150.535c-83.127 0-150.535 67.408-150.535 150.535 0 83.127 67.408 150.502 150.535 150.502z" />
<glyph unicode="&#xe696;" d="M493.481 8.702h130.315l-14.403-72.702h-399.861l14.403 72.702h130.315l175.582 877.91h-130.315l15.089 73.388h399.861l-15.089-73.388h-130.315l-175.582-877.91" />
<glyph unicode="&#xe697;" d="M512 960c-282.77 0-512-229.23-512-512s229.23-512 512-512c282.77 0 512 229.23 512 512 0 282.77-229.23 512-512 512zM334.688 667.438h354.562c23.864-1.616 41.871-18.98 42.188-41v-355.75c-1.692-24.797-19.731-41.823-42.188-42.125h-354.562c-24.781 1.69-41.824 19.69-42.125 42.125v355.75c1.367 23.748 21.138 40.718 42.125 41zM394.375 586.688c-12.724-0.316-20.929-10.109-21.063-21.125v-234c0.33-12.702 10.076-20.992 21.063-21.125h235.187c12.73 0.33 20.994 10.114 21.125 21.125v234c-0.312 12.753-10.083 20.993-21.125 21.125h-235.187z" />
<glyph unicode="&#xe698;" d="M0 960v-292.062h303.125c46.632 59.808 119.661 98.375 201.813 98.375 82.156 0 155.243-38.561 201.875-98.375h317.188v292.062h-1024zM819.438 916.562h95.75c34.087 0 61.5-27.475 61.5-61.562v-80.188c0-34.087-27.413-61.562-61.5-61.562h-95.75c-34.088 0-61.5 27.475-61.5 61.562v80.188c0 34.088 27.412 61.562 61.5 61.562zM112.438 915.625h34.937v-202.437h-34.937v202.437zM172.5 915.625h36v-202.437h-36v202.437zM233.625 915.625h34.937v-202.437h-34.937v202.437zM86.25 910.188v-197h-36.062v141.812c0 12.262 3.461 23.453 10.375 33.562 6.914 10.103 15.499 17.295 25.688 21.625zM504.562 737.312c-124.213 0-224.937-100.272-224.937-223.875s100.725-223.813 224.937-223.813c124.213 0 224.938 100.21 224.938 223.813 0 123.602-100.725 223.875-224.938 223.875zM504.562 691.875c99.042 0 179.313-79.882 179.313-178.437 0-98.556-80.27-178.438-179.313-178.438-99.042 0-179.312 79.882-179.312 178.438 0 98.556 80.27 178.437 179.312 178.437zM0 626.562v-690.562h1024v690.562h-290.875c17.176-34.008 26.813-72.441 26.813-113.062 0-139.601-114.179-252.75-255-252.75-140.821 0-254.938 113.149-254.938 252.75 0 40.631 9.691 79.048 26.875 113.062h-276.875z" />
<glyph unicode="&#xe699;" d="M512 960c-282.77 0-512-229.23-512-512s229.23-512 512-512c282.77 0 512 229.23 512 512 0 282.77-229.23 512-512 512zM495.938 784.312c23.461-0.001 42.565-6.327 57.312-19.062 14.747-12.737 22.125-29.533 22.125-50.312 0-20.781-7.378-37.514-22.125-50.25-14.747-12.737-33.851-19.126-57.312-19.125-23.462 0-42.566 6.388-57.313 19.125-14.077 12.736-21.125 29.469-21.125 50.25 0 20.779 7.048 37.576 21.125 50.312 14.747 12.736 33.851 19.062 57.313 19.062zM569.312 560.125l20.125-23.125c-10.726-28.154-16.125-59.314-16.125-93.5v-246.375c0-8.714 0.722-14.711 2.063-18.063 2.011-3.352 6.359-6.711 13.063-10.062 12.066-7.374 29.788-14.422 53.25-21.125l-7-36.187c-57.648 6.033-98.226 9-121.688 9s-63.647-2.967-120.625-9l-8.063 36.187c24.132 5.363 41.917 12.081 53.313 20.125 10.055 6.033 15.062 15.718 15.063 29.125v251.375c0 23.461-9.089 35.187-27.188 35.188l-35.188-7-8 40.187c24.132 10.054 55.951 19.803 95.5 29.187s70.049 14.062 91.5 14.063z" />
<glyph unicode="&#xe69a;" d="M0 874.469v-150.312h1024v150.25l-1024 0.062zM1024 640.219l-288.375-192.25 288.375-192.25v384.5zM0 639.094v-149.813h592v149.813h-592zM0 405.531v-149.812h592v149.812h-592zM1024 171.781l-1024-0.062v-150.188h1024v150.25z" />
<glyph unicode="&#xe69b;" d="M1024 874.469v-150.312h-1024v150.25l1024 0.062zM0 640.219l288.375-192.25-288.375-192.25v384.5zM1024 639.094v-149.812h-592v149.812h592zM1024 405.531v-149.812h-592v149.812h592zM0 171.781l1024-0.062v-150.188h-1024v150.25z" />
<glyph unicode="&#xe69c;" d="M80 416l237.088 320h389.824l237.088-320h-176l-128-128h-256l-128 128h-176zM280.992 800l-280.992-384v-320h1024v320l-280.992 384h-462.016z" />
<glyph unicode="&#xe69d;" d="M512 960c-282.77 0-512-229.23-512-512s229.23-512 512-512c282.77 0 512 229.23 512 512 0 282.77-229.23 512-512 512zM449.5 775.625h125v-143.563h72.938l-135.438-203.187-135.438 203.187h72.938v143.563zM204.375 456.875h202.125c0-58.253 47.247-105.563 105.5-105.563 58.253 0 105.5 47.309 105.5 105.563h202.125v-296.5h-615.25v296.5z" />
<glyph unicode="&#xe69e;" d="M408 960v-238.938h-121.438l225.438-338.187 225.438 338.187h-121.438v238.938h-208zM0 429.438v-493.438h1024v493.438h-336.375c0-96.962-78.663-175.625-175.625-175.625s-175.625 78.663-175.625 175.625h-336.375z" />
<glyph unicode="&#xe69f;" d="M512 960c-282.77 0-512-229.23-512-512s229.23-512 512-512c282.77 0 512 229.23 512 512 0 282.77-229.23 512-512 512zM494.625 770.75h34.75v-102.438h-34.75v102.438zM352.5 740l58.75-83.875-28.5-20-58.75 83.875 28.5 20zM671.5 740l28.5-20-58.75-83.875-28.5 20 58.75 83.875zM512 640.312c85.123 0 154.125-51.669 154.125-115.437l-87.562-265.187h-133.125l-87.562 265.187c0 63.77 69.007 115.437 154.125 115.437zM235.187 609.562l96.25-35.062-11.937-32.688-96.188 35.062 11.875 32.688zM788.813 609.562l11.875-32.688-96.25-35.062-11.875 32.688 96.25 35.062zM326.813 460l9-33.625-98.938-26.5-9 33.625 98.938 26.5zM697.187 460l98.938-26.5-9-33.625-98.938 26.5 9 33.625zM443.5 240.313h137v-46.063h-137v46.063zM443.5 171.312h137v-46.062h-137v46.062z" />
<glyph unicode="&#xe6a0;" d="M484.406 960v-162.494h55.193v162.494h-55.198zM259.032 911.168l-45.22-31.661 93.186-133.074 45.195 31.661-93.162 133.074zM764.962 911.168l-93.16-133.074 45.202-31.661 93.186 133.074-45.22 31.661zM511.991 753.046c-135.020 0-244.474-81.991-244.474-183.146l138.899-420.65h211.175l138.887 420.65c0 101.154-109.447 183.146-244.474 183.146zM72.93 704.279l-18.858-51.895 152.618-55.564 18.928 51.87-152.692 55.589zM951.064 704.279l-152.692-55.593 18.864-51.876 152.691 55.573-18.864 51.896zM218.245 467.046l-156.928-42.092 14.238-53.274 156.928 42.031-14.236 53.336zM805.749 467.046l-14.229-53.334 156.928-42.024 14.229 53.275-156.928 42.085zM403.337 118.586v-73.118h217.332v73.107h-217.332zM403.337 9.118v-73.118h217.332v73.107h-217.332z" />
<glyph unicode="&#xe6a1;" d="M93.198 960v-44.857c-2.579-343.956-47.524-228.157 190.992-467.143-242.858-239.32-190.992-127.42-190.992-467.143v-44.857h837.563v44.857c2.552 343.869 47.77 228.731-190.642 467.143 242.707 238.624 190.642 127.642 190.642 467.143v44.857h-837.563zM182.912 870.286h658.136c12.252-252.955-15.699-209.495-196.6-390.396l-31.54-31.89 31.54-31.89c202.032-199.766 196.6-130.793 196.6-390.396h-658.136c-12.288 252.939 15.869 209.694 196.6 390.746l31.54 31.54-31.54 31.54c-201.898 199.967-196.6 131.121-196.6 390.746zM274.028 685.952c77.468-66.215 186.101-95.562 208.865-226.738h43.455c-1.822 117.949 130.923 161.085 223.233 226.738-182.972-19.722-257.599-30.303-475.554 0zM510.228 311.326c-119.486 0.753-238.154-60.506-235.849-186.086h475.554c0.087 122.568-120.218 185.333-239.704 186.086z" />
<glyph unicode="&#xe6a2;" d="M512 960c-282.77 0-512-229.23-512-512s229.23-512 512-512c282.77 0 512 229.23 512 512 0 282.77-229.23 512-512 512zM512 724.062l250-194.312v-357.812h-172v216h-156v-216h-172v357.812l250 194.312z" />
<glyph unicode="&#xe6a3;" d="M512 960l-463.663-360.382v-663.618h319v400.605h289.326v-400.605h319v663.618l-463.663 360.382z" />
<glyph unicode="&#xe6a4;" d="M710.388 920.602c-41.23-0.424-83.518-8.475-124.891-24.99l-1.879-0.797-1.878-0.968c-26.227-13.356-50.132-30.065-71.383-49.865-114.366 98.915-296.442 106.094-421.009-6.205l-1.252-1.138-1.138-1.195c-109.273-114.138-106.715-289.918-41.213-428.808l0.569-1.082 0.569-1.138c77.144-142.854 221.197-264.236 352.473-364.028l0.342-0.285 0.285-0.228c8.446-6.192 22.967-18.993 39.733-31.593 16.766-12.6 35.703-26.409 63.413-31.707l6.205-1.195 6.262 0.512c29.084 2.508 40.492 13.247 59.599 25.274 19.107 12.027 40.258 27.295 61.99 44.002 42.839 32.934 87.166 70.894 116.352 97.966 0.376 0.349 0.995 0.85 1.366 1.195 0.060 0.051 0.11 0.119 0.171 0.171 61.484 52.466 122.388 112.949 174.016 184.092 0.016 0.022 0.041 0.035 0.056 0.057 0.097 0.131 0.187 0.268 0.285 0.398 81.882 110.245 121.602 258.813 74.229 405.184l-0.854 2.619-1.138 2.448c-53.189 114.99-167.589 182.574-291.279 181.303zM711.868 830.548c89.117 2.050 167.23-45.669 206.008-127.282 35.832-114.259 4.859-230.673-61.876-320.311l-0.341-0.456c-46.49-64.154-102.792-120.311-161.152-169.975l-1.48-1.366c-26.279-24.462-70.762-62.569-111.4-93.811-20.319-15.621-39.799-29.581-54.932-39.107-5.69-3.582-11.099-6.023-15.54-7.912-4.667 2.55-10.59 6.14-16.736 10.759-12.373 9.299-25.549 21.169-39.904 31.764-0.224 0.17-0.459 0.342-0.683 0.512-127.398 96.899-261.589 214.558-326.117 333.176-52.386 111.917-50.101 245.873 23.908 324.58 100.63 89.474 250.131 70.022 324.694-21.802l36.317-44.685 35.122 45.596c20.209 26.217 44.326 46.259 73.603 61.478 30.688 11.988 61.179 18.167 90.509 18.842z" />
<glyph unicode="&#xe6a5;" d="M512 960c-282.77 0-512-229.23-512-512s229.23-512 512-512c282.77 0 512 229.23 512 512 0 282.77-229.23 512-512 512zM625.313 666.877c60.839 0.951 115.859-32.125 141.941-88.511 24.126-74.544 3.935-150.378-38.614-207.53-28.086-38.756-61.651-72.179-95.968-101.382-31.571-29.388-102.236-87.544-120.964-89.159-16.553 3.165-35.134 21.912-48.276 31.546-73.843 56.133-153.316 124.367-193.621 199.003-33.793 71.654-33.854 160.311 18.74 215.246 68.197 61.48 171 49.447 223.157-14.784 14.007 18.171 31.237 32.483 51.68 42.894 20.718 8.27 41.645 12.36 61.925 12.677z" />
<glyph unicode="&#xe6a6;" d="M1004.057 746.37c46.509-143.702 7.586-289.93-74.438-400.103-54.141-74.712-118.847-139.104-185-195.399-60.861-56.653-197.062-168.75-233.165-171.864-31.909 6.1-67.714 42.182-93.047 60.755-142.35 108.21-295.586 239.804-373.284 383.683-65.143 138.13-65.263 308.98 36.124 414.881 131.465 118.518 329.661 95.359 430.207-28.462 27.002 35.030 60.207 62.579 99.615 82.648 159.755 63.768 325.949-1.21 392.988-146.139z" />
</font>
</defs>
</svg>
