<?xml version="1.0" encoding="UTF-8" standalone="no"?>
<svg width="340px" height="71px" viewBox="0 0 340 71" version="1.1" xmlns="http://www.w3.org/2000/svg" xmlns:xlink="http://www.w3.org/1999/xlink" xmlns:sketch="http://www.bohemiancoding.com/sketch/ns">
    <!-- Generator: Sketch 3.2.2 (9983) - http://www.bohemiancoding.com/sketch -->
    <title>ensoul</title>
    <desc>Created with Sketch.</desc>
    <defs></defs>
    <g id="Page-1" stroke="none" stroke-width="1" fill="none" fill-rule="evenodd" sketch:type="MSPage">
        <g id="logo-ensoul" sketch:type="MSLayerGroup">
            <path d="M189.079,70.378 C182.641,70.378 177.288,68.784 171.727,65.214 C171.71,65.077 171.696,64.966 171.682,64.87 C171.59,64.192 171.59,64.192 171.595,60.188 C171.596,59.022 171.598,57.512 171.598,55.549 C178.433,58.748 183.844,61.266 189.077,61.295 L189.316,61.295 C193.432,61.295 196.243,60.674 197.667,59.447 C198.883,58.4 198.883,57.119 198.883,56.271 L198.883,55.484 C198.883,53.83 197.794,51.879 194.739,51.371 C193.596,51.166 192.371,50.98 191.184,50.803 C182.258,49.451 170.075,47.61 170.075,35.309 C170.075,26.609 176.685,21.205 187.329,21.205 C194.022,21.205 199.805,22.71 205.003,25.806 L205.064,34.406 C197.451,31.563 193.689,30.404 187.331,30.404 C180.541,30.404 179.625,32.883 179.625,35.31 C179.625,37.807 180.538,39.524 185.08,40.362 C185.963,40.514 186.968,40.665 187.937,40.809 L188.021,40.823 C196.149,42.04 208.43,43.878 208.43,55.487 L208.43,56.274 C208.431,65.238 201.377,70.378 189.079,70.378 L189.079,70.378 Z" id="Shape" fill="#000000" sketch:type="MSShapeGroup"></path>
            <path d="M233.93,69.826 C223.59,69.826 216.909,63.467 216.909,53.623 L216.909,38.107 C216.909,28.263 223.591,21.904 233.93,21.904 L241.28,21.904 C251.617,21.904 258.297,28.263 258.297,38.107 L258.297,53.623 C258.297,63.467 251.617,69.826 241.28,69.826 L233.93,69.826 L233.93,69.826 Z M233.85,30.784 C228.359,30.784 226.218,32.79 226.218,37.937 L226.218,53.791 C226.218,58.943 228.359,60.949 233.85,60.949 L241.36,60.949 C246.852,60.949 248.993,58.943 248.993,53.791 L248.993,37.937 C248.993,32.79 246.852,30.784 241.36,30.784 L233.85,30.784 L233.85,30.784 Z" id="Shape" fill="#000000" sketch:type="MSShapeGroup"></path>
            <path d="M150.693,70.175 L150.693,40.089 C150.693,33.283 148.454,31.099 141.476,31.099 C136.538,31.099 132.609,33.322 130.184,35.187 L130.15,35.212 L130.153,70.175 L120.603,70.175 L120.603,22.255 L127.613,22.255 L129.304,25.95 L129.389,25.892 C133.566,23.06 137.068,21.904 141.476,21.904 C153.403,21.904 160.244,28.532 160.244,40.09 L160.244,70.176 L150.693,70.176 L150.693,70.175 Z" id="Shape" fill="#000000" sketch:type="MSShapeGroup"></path>
            <path d="M287.481,70.175 C275.554,70.175 268.713,63.546 268.713,51.989 L268.713,21.903 L278.263,21.903 L278.263,51.989 C278.263,58.796 280.502,60.979 287.481,60.979 C292.42,60.979 296.348,58.756 298.774,56.891 L298.806,56.866 L298.803,21.903 L308.353,21.903 L308.353,69.823 L301.735,69.823 L299.645,66.134 L299.568,66.187 C295.391,69.019 291.889,70.175 287.481,70.175 L287.481,70.175 Z" id="Shape" fill="#000000" sketch:type="MSShapeGroup"></path>
            <path d="M331.535,70.072 C324.239,70.072 320.54,65.095 320.54,55.281 L320.54,0.782 L330.09,0.782 L330.09,54.866 C330.09,60.229 331.34,60.583 332.549,60.923 C335.119,61.632 338.093,62.077 339.213,62.243 C339.359,62.264 339.475,62.282 339.551,62.294 L339.551,70.071 L331.535,70.071 L331.535,70.072 Z" id="Shape" fill="#000000" sketch:type="MSShapeGroup"></path>
            <path d="M102.135,41.593 L102.135,37.726 C102.135,34.647 98.222,30.193 91.147,30.193 L90.544,30.193 C81.258,30.193 76.124,33.937 76.124,45.927 C76.124,56.257 81.823,61.556 89.221,61.556 C97.851,61.556 105.223,58.673 106.252,58.253 L106.235,67.107 L105.183,67.554 C101.105,69.324 95.138,70.376 89.22,70.376 C82.516,70.376 77.005,68.157 73.29,63.954 C69.566,59.749 67.602,53.513 67.602,45.915 C67.602,38.028 69.427,31.976 73.024,27.926 C76.826,23.645 82.719,21.476 90.544,21.476 L91.147,21.476 C100.118,21.476 110.11,28.383 110.11,38.295 L110.102,49.682 L90.481,49.684 C90.392,49.684 90.303,49.688 79.431,49.692 L79.431,44.135 L84.138,41.592 L102.135,41.592 L102.135,41.593 L102.135,41.593 Z" id="Shape" fill="#000000" sketch:type="MSShapeGroup"></path>
            <g id="Group" sketch:type="MSShapeGroup">
                <path d="M51.299,54.785 L18.66,63.125 L6.934,60.389 C2.913,59.451 0.067,55.864 0.067,51.735 L0.067,46.755 L9.167,44.021 L51.299,54.785 L51.299,54.785 Z" id="Shape" fill="#E31C44"></path>
                <path d="M51.296,11.062 L18.192,19.546 L6.828,16.732 C2.861,15.751 0.078,12.19 0.078,8.105 L0.078,3.273 L9.179,0.536 L51.296,11.062 L51.296,11.062 Z" id="Shape" fill="#000000"></path>
                <path d="M52.454,55.083 L52.454,66.847 L43.625,69.501 L18.66,63.125 L51.296,54.787 L52.454,55.083 Z" id="Shape" fill="#000000"></path>
                <path d="M52.454,39.791 C52.454,35.73 49.702,32.187 45.767,31.181 L9.165,21.827 L0.066,24.562 L0.066,29.541 C0.066,33.671 2.912,37.256 6.933,38.196 L18.659,40.932 L18.66,40.932 L52.452,49.567 L52.454,39.791 L52.454,39.791 Z" id="Shape" fill="#E31C44"></path>
                <path d="M52.454,28.034 L52.454,11.359 L51.296,11.062 L18.183,19.549 L52.454,28.034 Z" id="Shape" fill="#E31C44"></path>
            </g>
        </g>
    </g>
</svg>