<?xml version="1.0" encoding="utf-8"?>
<!-- Generator: Adobe Illustrator 19.2.0, SVG Export Plug-In . SVG Version: 6.00 Build 0)  -->
<svg version="1.1" id="Layer_1" xmlns="http://www.w3.org/2000/svg" xmlns:xlink="http://www.w3.org/1999/xlink" x="0px" y="0px"
	 viewBox="0 0 882 294" style="enable-background:new 0 0 882 294;" xml:space="preserve">
<style type="text/css">
	.st0{fill:#7BC35F;}
</style>
<g>
	<path class="st0" d="M8.1,86.5c0-9,1.7-17.6,5.1-25.6c3.4-8,8.1-15.1,14.1-21.1c6-6,13.1-10.7,21.1-14.1c8-3.4,16.6-5.1,25.6-5.1
		c8,0,15.8,1.4,23.4,4.1c0.5,0,0.9-0.1,1.3-0.2c0.4-0.1,0.8-0.2,1.3-0.2h32.4c5,0,7.5,2.4,7.5,7.2v184.9c0,9-1.7,17.6-5.1,25.6
		c-3.4,8-8.1,15.1-14.1,21.1c-6,6-13.1,10.7-21.1,14.1c-8,3.4-16.6,5.1-25.6,5.1c-10.8,0-21-2.4-30.7-7.2
		c-9.7-4.8-17.5-11.7-23.5-20.7c-1.3-2.5-0.6-5,1.9-7.5l21.1-21.5c1.5-1.5,3.4-2.3,5.6-2.3c1.8,0,3.4,0.6,4.9,1.9
		c1.5,1.2,3.2,2.7,5.1,4.3c1.9,1.6,4.1,3.1,6.6,4.3c2.5,1.2,5.5,1.9,9,1.9c5.3,0,9.8-1.9,13.6-5.6c3.8-3.8,5.6-8.3,5.6-13.6v-3
		c-6.5,2-12.9,3-19.2,3c-9,0-17.6-1.7-25.6-5.1c-8-3.4-15.1-8.1-21.1-14.1c-6-6-10.7-13.1-14.1-21.1c-3.4-8-5.1-16.6-5.1-25.6V86.5z
		 M93.2,86.5c0-5.3-1.9-9.8-5.6-13.6c-3.8-3.8-8.3-5.6-13.6-5.6c-5.3,0-9.8,1.9-13.6,5.6c-3.8,3.8-5.6,8.3-5.6,13.6v64
		c0,5.3,1.9,9.8,5.6,13.6c3.8,3.8,8.3,5.7,13.6,5.7c5.3,0,9.8-1.9,13.6-5.7c3.8-3.8,5.6-8.3,5.6-13.6V86.5z"/>
	<path class="st0" d="M164.4,86.5c0-9,1.7-17.6,5.1-25.6c3.4-8,8.1-15.1,14.1-21.1c6-6,13-10.7,21.1-14.1c8-3.4,16.6-5.1,25.6-5.1
		c9,0,17.6,1.7,25.6,5.1c8,3.4,15.1,8.1,21.1,14.1c6,6,10.7,13.1,14.1,21.1c3.4,8,5.1,16.6,5.1,25.6v35.8c0,2.8-0.7,4.8-2.3,6.2
		c-1.5,1.4-3.3,2.1-5.3,2.1h-77.6v20c0,5.3,1.9,9.8,5.7,13.6c3.8,3.8,8.3,5.7,13.6,5.7c6.5,0,11-1.2,13.6-3.6c2.5-2.4,4.3-5,5.3-7.9
		c1-2.9,1.9-5.5,2.8-7.9c0.9-2.4,2.8-3.6,5.8-3.6h30.1c2,0,3.9,0.7,5.6,2.1c1.8,1.4,2.6,3.5,2.6,6.2c0,7.8-1.7,15.4-5.1,22.8
		c-3.4,7.4-8.1,13.9-14.1,19.6c-6,5.6-13.1,10.2-21.1,13.7c-8,3.5-16.6,5.3-25.6,5.3c-9,0-17.6-1.7-25.6-5.1
		c-8-3.4-15.1-8.1-21.1-14.1c-6-6-10.7-13.1-14.1-21.1c-3.4-8-5.1-16.6-5.1-25.6V86.5z M249.5,89.2c0-8.8-1.9-14.8-5.6-18.1
		c-3.8-3.3-8.3-4.9-13.6-4.9c-5.3,0-9.7,1.7-13.4,5.1c-3.6,3.4-5.6,9.4-5.8,17.9H249.5z"/>
	<path class="st0" d="M322.2,31.9c0-2,0.6-3.8,1.9-5.3c1.3-1.5,3.1-2.3,5.6-2.3h30.9c0.8,0,1.9,0.2,3.4,0.7
		c3.8-1.3,7.7-2.3,11.7-3.2c4-0.9,8.2-1.3,12.4-1.3c9,0,17.6,1.7,25.6,5.1c8,3.4,15.1,8.1,21.1,14.1c6,6,10.7,13.1,14.1,21.1
		c3.4,8,5.1,16.6,5.1,25.6v118.6c0,2-0.8,3.8-2.4,5.3c-1.6,1.5-3.4,2.3-5.5,2.3h-31.3c-2,0-3.8-0.6-5.3-1.9
		c-1.5-1.3-2.3-3.1-2.3-5.6V86.5c0-5-1.9-9.5-5.7-13.4c-3.8-3.9-8.3-5.8-13.6-5.8c-5,0-9.5,1.9-13.4,5.6c-3.9,3.8-5.8,8.2-5.8,13.2
		v119c0,5-2.6,7.5-7.9,7.5h-31.3c-5,0-7.5-2.5-7.5-7.5V31.9z"/>
	<path class="st0" d="M480,86.5c0-9,1.7-17.6,5.1-25.6c3.4-8,8.1-15.1,14.1-21.1c6-6,13-10.7,21.1-14.1c8-3.4,16.6-5.1,25.6-5.1
		c9,0,17.6,1.7,25.6,5.1c8,3.4,15.1,8.1,21.1,14.1c6,6,10.7,13.1,14.1,21.1c3.4,8,5.1,16.6,5.1,25.6v35.8c0,2.8-0.7,4.8-2.3,6.2
		c-1.5,1.4-3.3,2.1-5.3,2.1h-77.6v20c0,5.3,1.9,9.8,5.7,13.6c3.8,3.8,8.3,5.7,13.6,5.7c6.5,0,11.1-1.2,13.6-3.6
		c2.5-2.4,4.3-5,5.3-7.9c1-2.9,1.9-5.5,2.8-7.9c0.9-2.4,2.8-3.6,5.8-3.6h30.1c2,0,3.9,0.7,5.7,2.1c1.8,1.4,2.6,3.5,2.6,6.2
		c0,7.8-1.7,15.4-5.1,22.8c-3.4,7.4-8.1,13.9-14.1,19.6c-6,5.6-13.1,10.2-21.1,13.7c-8,3.5-16.6,5.3-25.6,5.3
		c-9,0-17.6-1.7-25.6-5.1c-8-3.4-15.1-8.1-21.1-14.1c-6-6-10.7-13.1-14.1-21.1c-3.4-8-5.1-16.6-5.1-25.6V86.5z M565.1,89.2
		c0-8.8-1.9-14.8-5.7-18.1c-3.8-3.3-8.3-4.9-13.6-4.9c-5.3,0-9.7,1.7-13.4,5.1c-3.6,3.4-5.6,9.4-5.8,17.9H565.1z"/>
	<path class="st0" d="M634.4,86.5c0-9,1.7-17.6,5.1-25.6c3.4-8,8.1-15.1,14.1-21.1c6-6,13.1-10.7,21.1-14.1c8-3.4,16.6-5.1,25.6-5.1
		h11.7c5,0.5,7.5,3,7.5,7.5v30.5c0,2.5-0.8,4.6-2.3,6.2c-1.5,1.6-3.3,2.4-5.3,2.4h-11.7c-5.3,0-9.8,1.9-13.6,5.6
		c-3.8,3.8-5.6,8.3-5.6,13.6v117.9c0,2.5-0.8,4.5-2.5,6c-1.6,1.5-3.5,2.3-5.4,2.3h-30.9c-2.5,0-4.5-0.9-5.8-2.6
		c-1.4-1.8-2.1-3.6-2.1-5.6V86.5z"/>
	<path class="st0" d="M742.8,86.5c0-9,1.7-17.6,5.1-25.6c3.4-8,8.1-15.1,14.1-21.1c6-6,13-10.7,21.1-14.1c8-3.4,16.6-5.1,25.6-5.1
		c9,0,17.6,1.7,25.6,5.1c8,3.4,15.1,8.1,21.1,14.1c6,6,10.7,13.1,14.1,21.1c3.4,8,5.1,16.6,5.1,25.6v64c0,9-1.7,17.6-5.1,25.6
		c-3.4,8-8.1,15.1-14.1,21.1c-6,6-13.1,10.7-21.1,14.1c-8,3.4-16.6,5.1-25.6,5.1c-9,0-17.6-1.7-25.6-5.1c-8-3.4-15.1-8.1-21.1-14.1
		c-6-6-10.7-13.1-14.1-21.1c-3.4-8-5.1-16.6-5.1-25.6V86.5z M827.9,86.5c0-5.3-1.9-9.8-5.7-13.6c-3.8-3.8-8.3-5.6-13.6-5.6
		c-5.3,0-9.8,1.9-13.6,5.6c-3.8,3.8-5.7,8.3-5.7,13.6v64c0,5.3,1.9,9.8,5.7,13.6c3.8,3.8,8.3,5.7,13.6,5.7c5.3,0,9.8-1.9,13.6-5.7
		c3.8-3.8,5.7-8.3,5.7-13.6V86.5z"/>
</g>
</svg>
