<svg xmlns="http://www.w3.org/2000/svg" viewBox="0 0 24 24">
  <path fill-rule="evenodd"
    d="M5.49840158,0 C2.46634005,0 0,2.46705901 0,5.49996538 C0,6.70278107 0.387901652,7.81826132 1.04729963,8.72367592 L0.361994337,10.7671208 L2.47602238,10.0914779 C3.34551825,10.6670162 4.38314704,11 5.50159842,11 C8.53365995,11 11,8.53286029 11,5.50004562 C11,2.46713925 8.53363703,0 5.50159842,0 L5.49840158,0 Z M3.96294203,2.79373609 C3.8562965,2.53831613 3.77546842,2.52864296 3.61390251,2.52207508 C3.55889193,2.51888115 3.49758657,2.51568726 3.42962162,2.51568726 C3.21943204,2.51568726 2.99966324,2.57710095 2.86710855,2.71288655 C2.70554357,2.87778206 2.30468712,3.26250844 2.30468712,4.05148807 C2.30468712,4.84046771 2.88006333,5.60353086 2.95760652,5.7102996 C3.0384346,5.81688389 4.07934643,7.45945095 5.69555521,8.12887885 C6.95942904,8.65267597 7.33446757,8.60412702 7.62211101,8.54271496 C8.04230682,8.45219138 8.56924177,8.1416549 8.70179646,7.76669241 C8.83435098,7.39154883 8.83435098,7.07143053 8.79548768,7.00353756 C8.75671562,6.93564464 8.64997884,6.89695309 8.48841323,6.81601115 C8.32684825,6.73516028 7.54128246,6.34714993 7.39258061,6.29540868 C7.24707178,6.24047394 7.10813176,6.25991095 6.99829211,6.41513357 C6.8431131,6.63177011 6.6912176,6.85169153 6.56833372,6.98419109 C6.47135808,7.08767291 6.3128951,7.10063092 6.18043206,7.04560477 C6.00262856,6.97132432 5.50488928,6.79657397 4.89064862,6.25014665 C4.41544125,5.82663742 4.0922197,5.29964805 3.99852935,5.14123201 C3.90474672,4.97962157 3.98885923,4.88572035 4.06311868,4.79848346 C4.143947,4.69819551 4.22149088,4.62710895 4.3023185,4.53330094 C4.38314658,4.43958324 4.42839562,4.39103632 4.480122,4.2810755 C4.53513263,4.17440002 4.49626933,4.06443919 4.45749751,3.9835874 C4.41872545,3.9027367 4.0955032,3.11375545 3.96295077,2.7937288 L3.96294203,2.79373609 L3.96294203,2.79373609 Z"
    transform="translate(7 7)" />
</svg>