<?xml version="1.0" encoding="utf-8"?>
<!-- Generator: Adobe Illustrator 18.1.1, SVG Export Plug-In . SVG Version: 6.00 Build 0)  -->
<svg version="1.1" id="Layer_1" xmlns="http://www.w3.org/2000/svg" xmlns:xlink="http://www.w3.org/1999/xlink" x="0px" y="0px"
	 viewBox="0 166 612 612" enable-background="new 0 166 612 612" xml:space="preserve">
<g>
	<g>
		<path fill="none" d="M0,166h612v612H0V166z"/>
	</g>
	<g>
		<path d="M387.4,472c26.3-21.5,43.1-55.1,43.1-91c0-67-57.4-124.5-124.5-124.5c-69.4,0-124.5,55.1-124.5,124.5
			c0,35.9,16.8,69.4,43.1,91C148,503.1,95.4,577.3,95.4,663.5c0,14.4,12,23.9,23.9,23.9c14.4,0,23.9-12,23.9-23.9
			c0-88.6,71.8-160.4,162.8-160.4c88.6,0,162.8,71.8,162.8,160.4c0,14.4,12,23.9,23.9,23.9c14.4,0,23.9-12,23.9-23.9
			C514.2,577.3,461.6,503.1,387.4,472z M303.6,455.2c-43.1,0-76.6-33.5-76.6-74.2s33.5-74.2,76.6-74.2s76.6,33.5,76.6,74.2
			S346.7,455.2,303.6,455.2z"/>
	</g>
</g>
</svg>
