<svg xmlns="http://www.w3.org/2000/svg" viewBox="0 0 94.644 60"><path d="M30 15a15 15 0 1 0 12.001 24h16.626a30 30 0 1 1 0-18H42a14.977 14.977 0 0 0-12-6z" fill="#0085ff"/><path d="M29.56 36.16c3.42 0 5.9-2.3 5.9-5.54s-2.48-5.54-5.9-5.54-5.92 2.3-5.92 5.54 2.5 5.54 5.92 5.54zm0-2.56a2.73 2.73 0 0 1-2.76-2.98 2.759 2.759 0 1 1 5.5 0 2.715 2.715 0 0 1-2.74 2.98zm14.526-8.52a4.71 4.71 0 0 0-3.56 1.42v-1.26h-2.98V36h3.12v-5.32c0-1.98 1.08-2.9 2.58-2.9 1.38 0 2.18.8 2.18 2.54V36h3.12v-6.16c0-3.28-1.92-4.76-4.46-4.76zm17.944 5.58a5.327 5.327 0 0 0-5.6-5.58 5.478 5.478 0 0 0-5.74 5.54c0 3.2 2.42 5.54 6.14 5.54a5.635 5.635 0 0 0 4.44-1.74l-1.66-1.8a3.648 3.648 0 0 1-2.7 1.04 2.87 2.87 0 0 1-3.08-2.16h8.14c.02-.26.06-.6.06-.84zm-5.58-3.22a2.557 2.557 0 0 1 2.64 2.24h-5.3a2.547 2.547 0 0 1 2.66-2.24z" fill="#006acc"/><path d="M70.8 25.08a4.18 4.18 0 0 0-3.38 1.4v-1.24h-2.98v14.64h3.12v-5.02a4.177 4.177 0 0 0 3.24 1.3 5.226 5.226 0 0 0 5.36-5.54 5.226 5.226 0 0 0-5.36-5.54zm-.54 8.52a2.715 2.715 0 0 1-2.74-2.98 2.75 2.75 0 1 1 5.48 0 2.715 2.715 0 0 1-2.74 2.98zm9.549-9.86a1.794 1.794 0 0 0 1.94-1.8 1.751 1.751 0 0 0-1.94-1.68 1.75 1.75 0 1 0 0 3.48zM78.249 36h3.12V25.24h-3.12zm16.395 0l-4.16-5.5 4-5.26h-3.32l-2.34 3.14-2.28-3.14h-3.5l4 5.34-4.14 5.42h3.4l2.44-3.3 2.36 3.3z" fill="#7397b8"/></svg>